<svg height="304pt" preserveAspectRatio="xMidYMid meet" viewBox="0 0 304 304" width="304pt" xmlns="http://www.w3.org/2000/svg"><g transform="matrix(.1 0 0 -.1 0 304)"><path d="m1366 3029c-248-24-518-126-730-276-104-74-275-245-349-349-376-531-376-1237 0-1768 77-108 247-276 358-354 323-228 738-323 1125-256 347 60 669 239 893 499 461 533 497 1304 90 1879-74 104-245 275-349 349-219 155-480 252-749 277-123 11-161 11-289-1zm201-541c11-13 201-327 423-698 221-371 418-701 437-732 42-71 52-118 28-141-15-16-90-17-939-17-906 0-923 0-941 20-12 13-16 28-12 49 6 27 871 1485 905 1524 22 25 74 22 99-5zm761-60c-6-18-28-21-28-4 0 9 7 16 16 16s14-5 12-12zm452-277c0-6-4-13-10-16-5-3-10 1-10 9 0 9 5 16 10 16 6 0 10-4 10-9zm-640-25c0-16-18-31-27-22-8 8 5 36 17 36 5 0 10-6 10-14zm330-755c0-22-15-35-30-26-7 4-7 13 0 26 14 25 30 25 30 0zm-354-708c-10-10-19 5-10 18 6 11 8 11 12 0 2-7 1-15-2-18zm-456-448c0-8-7-15-15-15-9 0-12 6-9 15 4 8 10 15 15 15s9-7 9-15z"/><path d="m1128 1670c-169-281-306-510-304-510s63 33 135 74l133 73 150 239c83 131 164 260 179 285 29 46 29 48 29 198 0 83-3 151-7 151-5 0-146-230-315-510zm82-104c0-3-4-8-10-11-5-3-10-1-10 4 0 6 5 11 10 11 6 0 10-2 10-4z"/><path d="m1591 2026-1-160 171-272c94-150 178-279 187-287 20-17 254-148 258-145 2 3-568 955-598 999-16 23-17 17-17-135z"/><path d="m1392 1517-121-192 241-3c133-1 243-1 245 2 2 2-24 48-59 102-35 55-88 138-117 186-28 48-56 90-60 93-5 2-63-82-129-188z"/><path d="m1033 1117c-68-39-123-74-123-78 0-3 272-6 605-5 333 0 605 3 605 7s-56 39-124 78l-123 71-359-1h-359z"/></g></svg>