<?xml version="1.0" standalone="no"?>
<!DOCTYPE svg PUBLIC "-//W3C//DTD SVG 20010904//EN"
 "http://www.w3.org/TR/2001/REC-SVG-20010904/DTD/svg10.dtd">
<svg version="1.0" xmlns="http://www.w3.org/2000/svg"
 width="304.000000pt" height="304.000000pt" viewBox="0 0 304.000000 304.000000"
 preserveAspectRatio="xMidYMid meet">
<metadata>
Created by potrace 1.11, written by Peter Selinger 2001-2013
</metadata>
<g transform="translate(0.000000,304.000000) scale(0.100000,-0.100000)"
fill="#000000" stroke="none">
<path d="M1366 3029 c-248 -24 -518 -126 -730 -276 -104 -74 -275 -245 -349
-349 -376 -531 -376 -1237 0 -1768 77 -108 247 -276 358 -354 323 -228 738
-323 1125 -256 347 60 669 239 893 499 461 533 497 1304 90 1879 -74 104 -245
275 -349 349 -219 155 -480 252 -749 277 -123 11 -161 11 -289 -1z m201 -541
c11 -13 201 -327 423 -698 221 -371 418 -701 437 -732 42 -71 52 -118 28 -141
-15 -16 -90 -17 -939 -17 -906 0 -923 0 -941 20 -12 13 -16 28 -12 49 6 27
871 1485 905 1524 22 25 74 22 99 -5z m761 -60 c-6 -18 -28 -21 -28 -4 0 9 7
16 16 16 9 0 14 -5 12 -12z m452 -277 c0 -6 -4 -13 -10 -16 -5 -3 -10 1 -10 9
0 9 5 16 10 16 6 0 10 -4 10 -9z m-640 -25 c0 -16 -18 -31 -27 -22 -8 8 5 36
17 36 5 0 10 -6 10 -14z m330 -755 c0 -22 -15 -35 -30 -26 -7 4 -7 13 0 26 14
25 30 25 30 0z m-354 -708 c-10 -10 -19 5 -10 18 6 11 8 11 12 0 2 -7 1 -15
-2 -18z m-456 -448 c0 -8 -7 -15 -15 -15 -9 0 -12 6 -9 15 4 8 10 15 15 15 5
0 9 -7 9 -15z"/>
<path d="M1128 1670 c-169 -281 -306 -510 -304 -510 2 0 63 33 135 74 l133 73
150 239 c83 131 164 260 179 285 29 46 29 48 29 198 0 83 -3 151 -7 151 -5 0
-146 -230 -315 -510z m82 -104 c0 -3 -4 -8 -10 -11 -5 -3 -10 -1 -10 4 0 6 5
11 10 11 6 0 10 -2 10 -4z"/>
<path d="M1591 2026 l-1 -160 171 -272 c94 -150 178 -279 187 -287 20 -17 254
-148 258 -145 2 3 -568 955 -598 999 -16 23 -17 17 -17 -135z"/>
<path d="M1392 1517 l-121 -192 241 -3 c133 -1 243 -1 245 2 2 2 -24 48 -59
102 -35 55 -88 138 -117 186 -28 48 -56 90 -60 93 -5 2 -63 -82 -129 -188z"/>
<path d="M1033 1117 c-68 -39 -123 -74 -123 -78 0 -3 272 -6 605 -5 333 0 605
3 605 7 0 4 -56 39 -124 78 l-123 71 -359 -1 -359 0 -122 -72z"/>
</g>
</svg>
