<svg viewBox="0 0 806.76 90.4" xmlns="http://www.w3.org/2000/svg"><g fill="#fff"><path d="m138.67 69.79v-51.85h24.33a9.93 9.93 0 0 1 5.79 1.9l1.12.93c.46.38.91.8 1.36 1.25s.86.88 1.25 1.29a9.78 9.78 0 0 1 .85 1 7.4 7.4 0 0 1 1.08 2.42 11.44 11.44 0 0 1 .3 2.59v6.31a10.17 10.17 0 0 1 -.28 2.49 7.74 7.74 0 0 1 -.82 2 8.89 8.89 0 0 1 -1.32 1.71c-.52.53-1.1 1.1-1.73 1.7.63.61 1.21 1.18 1.73 1.71a8.89 8.89 0 0 1 1.32 1.71 7.74 7.74 0 0 1 .82 2 10.17 10.17 0 0 1 .28 2.49v7.17a9.5 9.5 0 0 1 -.33 2.51 8.21 8.21 0 0 1 -1.05 2.33 10.7 10.7 0 0 1 -.85 1c-.39.43-.8.87-1.25 1.32s-.9.87-1.36 1.29a12.76 12.76 0 0 1 -1.12.93 8.92 8.92 0 0 1 -2.73 1.34 10.32 10.32 0 0 1 -3.06.48zm7.08-29.56h17.25a2.4 2.4 0 0 0 1.25-.43 9.69 9.69 0 0 0 1.34-1 10.27 10.27 0 0 0 1.16-1.23 5.19 5.19 0 0 0 .74-1.12 2.24 2.24 0 0 0 .17-1v-6a1.44 1.44 0 0 0 -.17-.87 12.28 12.28 0 0 0 -.78-1.1 11.55 11.55 0 0 0 -1.16-1.29 8.52 8.52 0 0 0 -1.34-1.06 2.5 2.5 0 0 0 -1.3-.43h-17.2zm0 22.82h17.25a2.61 2.61 0 0 0 1.32-.44 8.55 8.55 0 0 0 1.36-1 10.27 10.27 0 0 0 1.16-1.23 5.47 5.47 0 0 0 .74-1.13.86.86 0 0 0 .13-.32 2.58 2.58 0 0 0 0-.54v-6.92a2.52 2.52 0 0 0 0-.54 1 1 0 0 0 -.13-.33 5.28 5.28 0 0 0 -.65-1 13.16 13.16 0 0 0 -.95-1.06 11.65 11.65 0 0 0 -1.06-1 5.85 5.85 0 0 0 -1-.65.41.41 0 0 0 -.3-.09h-17.87z"/><path d="m191 69.79 18-51.85h9.33l18.07 51.85h-7.6l-3.89-11.58h-22.47l-4 11.58zm13.74-18.24h18l-9-26.36z"/><path d="m244.79 24.68v-6.74h36.64v6.74h-14.78v45.11h-7.09v-45.11z"/><path d="m328 58.12v-28.52a9.48 9.48 0 0 1 .28-2.31 6.25 6.25 0 0 1 1-2.18 16.15 16.15 0 0 1 1.17-1.45c.52-.59 1.08-1.19 1.68-1.79s1.21-1.18 1.82-1.71a11.37 11.37 0 0 1 1.57-1.16 12.17 12.17 0 0 1 2.36-1 8.17 8.17 0 0 1 2.57-.44h11.49a8.2 8.2 0 0 1 3.22.65 13.55 13.55 0 0 1 2.84 1.6 19.6 19.6 0 0 1 2.48 2.25 30.87 30.87 0 0 1 2.05 2.44 10.83 10.83 0 0 1 1.08 1.69c.38.69.83 1.6 1.34 2.72l-6.91 2a8.23 8.23 0 0 0 -1-2 13.94 13.94 0 0 0 -1.42-1.91 15.66 15.66 0 0 0 -1.62-1.5c-.58-.46-1.11-.85-1.6-1.17a.69.69 0 0 1 -.22 0h-.22a1.09 1.09 0 0 0 -.26 0h-10.8a1.69 1.69 0 0 0 -.78.18 5.78 5.78 0 0 0 -1.12.73q-.64.53-1.32 1.17c-.44.43-.88.89-1.29 1.38a10.53 10.53 0 0 0 -1 1.38 1.33 1.33 0 0 0 -.15.5v.63 27.7a2.44 2.44 0 0 0 .58 1.36 13 13 0 0 0 1.3 1.64 18 18 0 0 0 1.62 1.43 9.65 9.65 0 0 0 1.36.9 1.69 1.69 0 0 0 .78.18h10.8a1.87 1.87 0 0 0 .87-.18 10.74 10.74 0 0 0 1.51-1 15.09 15.09 0 0 0 1.6-1.52 14.45 14.45 0 0 0 1.43-1.83 9.22 9.22 0 0 0 1-2l6.91 1.74c-.31.78-.67 1.57-1.08 2.38a11.48 11.48 0 0 1 -1.34 2.12c-.63.78-1.33 1.58-2.09 2.4a20.56 20.56 0 0 1 -2.49 2.26 12.53 12.53 0 0 1 -2.85 1.69 8.06 8.06 0 0 1 -3.2.65h-11.4a8.91 8.91 0 0 1 -2.62-.43 12.65 12.65 0 0 1 -2.4-1 11.83 11.83 0 0 1 -1.53-1.21c-.61-.52-1.21-1.07-1.82-1.66s-1.16-1.18-1.68-1.75a12.71 12.71 0 0 1 -1.17-1.47 6.16 6.16 0 0 1 -1-2.23 10 10 0 0 1 -.33-2.35z"/><path d="m383.49 58.12v-28.43a12.87 12.87 0 0 1 .23-2.34 5.82 5.82 0 0 1 1-2.24 14.9 14.9 0 0 1 1.18-1.45c.54-.59 1.11-1.19 1.71-1.79s1.22-1.18 1.84-1.71a12 12 0 0 1 1.55-1.16 11.81 11.81 0 0 1 2.35-1 8.21 8.21 0 0 1 2.57-.44h13.65a8.62 8.62 0 0 1 2.62.44 11.55 11.55 0 0 1 2.4 1 11.37 11.37 0 0 1 1.55 1.19c.61.53 1.21 1.1 1.82 1.71s1.16 1.2 1.68 1.79a16.15 16.15 0 0 1 1.17 1.45 6.19 6.19 0 0 1 1 2.22 10.16 10.16 0 0 1 .29 2.36v28.4a10 10 0 0 1 -.29 2.35 6.16 6.16 0 0 1 -1 2.23 12.71 12.71 0 0 1 -1.17 1.47c-.52.57-1.08 1.16-1.68 1.75s-1.21 1.14-1.82 1.66a11.83 11.83 0 0 1 -1.55 1.17 12.12 12.12 0 0 1 -2.4 1 8.91 8.91 0 0 1 -2.62.43h-13.64a8.49 8.49 0 0 1 -2.57-.43 10.3 10.3 0 0 1 -3.93-2.21c-.62-.52-1.23-1.07-1.84-1.66s-1.17-1.18-1.71-1.75a11.94 11.94 0 0 1 -1.18-1.47 5.79 5.79 0 0 1 -1-2.25 12.68 12.68 0 0 1 -.21-2.29zm7.08-.09a2.36 2.36 0 0 0 .61 1.28 16.79 16.79 0 0 0 1.42 1.62 20.55 20.55 0 0 0 1.67 1.49 6.54 6.54 0 0 0 1.32.88 1.59 1.59 0 0 0 .77.18h13a1.65 1.65 0 0 0 .77-.18 8.61 8.61 0 0 0 1.36-.9 15.63 15.63 0 0 0 1.59-1.4 13.11 13.11 0 0 0 1.37-1.58 2.51 2.51 0 0 0 .55-1.42v-28.14a1.79 1.79 0 0 0 -.17-.78 7.93 7.93 0 0 0 -1-1.38 15.57 15.57 0 0 0 -1.31-1.38c-.47-.43-.92-.82-1.36-1.17a7.3 7.3 0 0 0 -1.11-.73 1.65 1.65 0 0 0 -.77-.18h-13a1.59 1.59 0 0 0 -.77.18 8.28 8.28 0 0 0 -1.37.93 18.74 18.74 0 0 0 -1.66 1.49 12.1 12.1 0 0 0 -1.4 1.64 2.6 2.6 0 0 0 -.59 1.38z"/><path d="m442.6 69.79v-51.85h9l13.83 28.25 13.91-28.25h8.82v51.85h-6.91v-41.23l-13.59 27.83h-4.66l-13.4-27.83v41.23z"/><path d="m509.14 69.79v-51.85h9l13.86 28.25 13.92-28.25h8.81v51.85h-6.91v-41.23l-13.62 27.83h-4.67l-13.39-27.83v41.23z"/><path d="m575.25 58.21v-40.27h7.08v40.06a2.35 2.35 0 0 0 .63 1.28 17.67 17.67 0 0 0 1.47 1.62 18.24 18.24 0 0 0 1.73 1.49 7.47 7.47 0 0 0 1.36.88.79.79 0 0 0 .28.13 1.47 1.47 0 0 0 .41 0h10.72a1.65 1.65 0 0 0 .77-.18 6.4 6.4 0 0 0 1.32-.9 19.3 19.3 0 0 0 1.64-1.52 15.94 15.94 0 0 0 1.39-1.59 2.34 2.34 0 0 0 .58-1.26v-40.01h7.09v40.27a11.33 11.33 0 0 1 -.24 2.31 5.81 5.81 0 0 1 -1 2.18 12.71 12.71 0 0 1 -1.17 1.47c-.52.57-1.08 1.16-1.69 1.75s-1.2 1.14-1.81 1.66a11.2 11.2 0 0 1 -1.56 1.17 12.42 12.42 0 0 1 -2.35 1 8.49 8.49 0 0 1 -2.57.43h-11.55a8.91 8.91 0 0 1 -2.62-.43 12.28 12.28 0 0 1 -2.39-1 11.83 11.83 0 0 1 -1.56-1.17c-.6-.52-1.21-1.07-1.81-1.66s-1.17-1.18-1.69-1.75a12.71 12.71 0 0 1 -1.17-1.47 6.43 6.43 0 0 1 -1-2.18 9.6 9.6 0 0 1 -.29-2.31z"/><path d="m632.2 69.79v-51.85h8.38l21.6 40v-40h7v51.85h-8.18l-21.8-39.58v39.58z"/><path d="m690.1 69.79v-51.85h7.08v51.85z"/><path d="m715.24 24.68v-6.74h36.65v6.74h-14.78v45.11h-7.11v-45.11z"/><path d="m764.85 17.94h7.78l13.22 22.64a5 5 0 0 1 .52-.95l1.47-2.55c.6-1.07 1.3-2.28 2.09-3.63s1.61-2.74 2.44-4.15q2.94-5 6.7-11.36h7.69l-17.45 29.81v22h-7.09v-22z"/><path d="m106 86.9c0-1 0-1.5-.5-2v-.5l-49.5-82.52a3.76 3.76 0 0 0 -6.51 0l-49 83v.5c0 .5-.5 1-.5 1.5v.5a1.84 1.84 0 0 0 .5 1.5c.5.5.5 1 1 1a1.84 1.84 0 0 0 1.5.5h98.53a1.84 1.84 0 0 0 1.5-.5l1.5-1.5c1.48-.48 1.48-.98 1.48-1.48zm-53-42.51 14 22.5h-28zm-4-8.51-19.49 31.51-15.51 9.01 35-59zm-15.5 38h39l15.5 9h-70zm42.5-6.49-19.48-31.51v-18.5l35 59z"/></g></svg>