<svg xmlns="http://www.w3.org/2000/svg" viewBox="0 0 806.76 90.4"><defs><style>.cls-1{fill:#fff;}</style></defs><title>Asset 12</title><g id="Layer_2" data-name="Layer 2"><g id="Layer_1-2" data-name="Layer 1"><path class="cls-1" d="M138.67,69.79V17.94H163a9.93,9.93,0,0,1,5.79,1.9l1.12.93c.46.38.91.8,1.36,1.25s.86.88,1.25,1.29a9.78,9.78,0,0,1,.85,1,7.4,7.4,0,0,1,1.08,2.42,11.44,11.44,0,0,1,.3,2.59v6.31a10.17,10.17,0,0,1-.28,2.49,7.74,7.74,0,0,1-.82,2,8.89,8.89,0,0,1-1.32,1.71c-.52.53-1.1,1.1-1.73,1.7.63.61,1.21,1.18,1.73,1.71a8.89,8.89,0,0,1,1.32,1.71,7.74,7.74,0,0,1,.82,2,10.17,10.17,0,0,1,.28,2.49v7.17a9.5,9.5,0,0,1-.33,2.51,8.21,8.21,0,0,1-1.05,2.33,10.7,10.7,0,0,1-.85,1c-.39.43-.8.87-1.25,1.32s-.9.87-1.36,1.29a12.76,12.76,0,0,1-1.12.93,8.92,8.92,0,0,1-2.73,1.34,10.32,10.32,0,0,1-3.06.48Zm7.08-29.56H163a2.4,2.4,0,0,0,1.25-.43,9.69,9.69,0,0,0,1.34-1,10.27,10.27,0,0,0,1.16-1.23,5.19,5.19,0,0,0,.74-1.12,2.24,2.24,0,0,0,.17-1v-6a1.44,1.44,0,0,0-.17-.87,12.28,12.28,0,0,0-.78-1.1,11.55,11.55,0,0,0-1.16-1.29,8.52,8.52,0,0,0-1.34-1.06,2.5,2.5,0,0,0-1.3-.43h-17.2Zm0,22.82H163a2.61,2.61,0,0,0,1.32-.44,8.55,8.55,0,0,0,1.36-1,10.27,10.27,0,0,0,1.16-1.23,5.47,5.47,0,0,0,.74-1.13.86.86,0,0,0,.13-.32,2.58,2.58,0,0,0,0-.54V51.47a2.52,2.52,0,0,0,0-.54,1,1,0,0,0-.13-.33,5.28,5.28,0,0,0-.65-1,13.16,13.16,0,0,0-.95-1.06,11.65,11.65,0,0,0-1.06-1,5.85,5.85,0,0,0-1-.65.41.41,0,0,0-.3-.09H145.75Z"/><path class="cls-1" d="M191,69.79,209,17.94h9.33L236.4,69.79h-7.6l-3.89-11.58H202.44l-4,11.58Zm13.74-18.24h18l-9-26.36Z"/><path class="cls-1" d="M244.79,24.68V17.94h36.64v6.74H266.65V69.79h-7.09V24.68Z"/><path class="cls-1" d="M328,58.12V29.6a9.48,9.48,0,0,1,.28-2.31,6.25,6.25,0,0,1,1-2.18,16.15,16.15,0,0,1,1.17-1.45c.52-.59,1.08-1.19,1.68-1.79s1.21-1.18,1.82-1.71A11.37,11.37,0,0,1,335.52,19a12.17,12.17,0,0,1,2.36-1,8.17,8.17,0,0,1,2.57-.44h11.49a8.2,8.2,0,0,1,3.22.65A13.55,13.55,0,0,1,358,19.81a19.6,19.6,0,0,1,2.48,2.25,30.87,30.87,0,0,1,2.05,2.44,10.83,10.83,0,0,1,1.08,1.69c.38.69.83,1.6,1.34,2.72l-6.91,2a8.23,8.23,0,0,0-1-2A13.94,13.94,0,0,0,355.62,27,15.66,15.66,0,0,0,354,25.5c-.58-.46-1.11-.85-1.6-1.17a.69.69,0,0,1-.22,0l-.22,0a1.09,1.09,0,0,0-.26,0h-10.8a1.69,1.69,0,0,0-.78.18,5.78,5.78,0,0,0-1.12.73q-.64.53-1.32,1.17c-.44.43-.88.89-1.29,1.38a10.53,10.53,0,0,0-1,1.38,1.33,1.33,0,0,0-.15.5c0,.19,0,.4,0,.63V58a2.44,2.44,0,0,0,.58,1.36A13,13,0,0,0,337.12,61a18,18,0,0,0,1.62,1.43,9.65,9.65,0,0,0,1.36.9,1.69,1.69,0,0,0,.78.18h10.8a1.87,1.87,0,0,0,.87-.18,10.74,10.74,0,0,0,1.51-1,15.09,15.09,0,0,0,1.6-1.52,14.45,14.45,0,0,0,1.43-1.83,9.22,9.22,0,0,0,1-2L365,58.72c-.31.78-.67,1.57-1.08,2.38a11.48,11.48,0,0,1-1.34,2.12c-.63.78-1.33,1.58-2.09,2.4A20.56,20.56,0,0,1,358,67.88a12.53,12.53,0,0,1-2.85,1.69,8.06,8.06,0,0,1-3.2.65h-11.4a8.91,8.91,0,0,1-2.62-.43,12.65,12.65,0,0,1-2.4-1A11.83,11.83,0,0,1,334,67.58c-.61-.52-1.21-1.07-1.82-1.66s-1.16-1.18-1.68-1.75a12.71,12.71,0,0,1-1.17-1.47,6.16,6.16,0,0,1-1-2.23A10,10,0,0,1,328,58.12Z"/><path class="cls-1" d="M383.49,58.12V29.69a12.87,12.87,0,0,1,.23-2.34,5.82,5.82,0,0,1,1-2.24,14.9,14.9,0,0,1,1.18-1.45c.54-.59,1.11-1.19,1.71-1.79s1.22-1.18,1.84-1.71A12,12,0,0,1,391,19a11.81,11.81,0,0,1,2.35-1,8.21,8.21,0,0,1,2.57-.44h13.65a8.62,8.62,0,0,1,2.62.44,11.55,11.55,0,0,1,2.4,1,11.37,11.37,0,0,1,1.55,1.19c.61.53,1.21,1.1,1.82,1.71s1.16,1.2,1.68,1.79a16.15,16.15,0,0,1,1.17,1.45,6.19,6.19,0,0,1,1,2.22,10.16,10.16,0,0,1,.29,2.36V58.12a10,10,0,0,1-.29,2.35,6.16,6.16,0,0,1-1,2.23,12.71,12.71,0,0,1-1.17,1.47c-.52.57-1.08,1.16-1.68,1.75s-1.21,1.14-1.82,1.66a11.83,11.83,0,0,1-1.55,1.17,12.12,12.12,0,0,1-2.4,1,8.91,8.91,0,0,1-2.62.43H395.93a8.49,8.49,0,0,1-2.57-.43,10.3,10.3,0,0,1-3.93-2.21c-.62-.52-1.23-1.07-1.84-1.66s-1.17-1.18-1.71-1.75a11.94,11.94,0,0,1-1.18-1.47,5.79,5.79,0,0,1-1-2.25A12.68,12.68,0,0,1,383.49,58.12Zm7.08-.09a2.36,2.36,0,0,0,.61,1.28,16.79,16.79,0,0,0,1.42,1.62,20.55,20.55,0,0,0,1.67,1.49,6.54,6.54,0,0,0,1.32.88,1.59,1.59,0,0,0,.77.18h13a1.65,1.65,0,0,0,.77-.18,8.61,8.61,0,0,0,1.36-.9A15.63,15.63,0,0,0,413.08,61a13.11,13.11,0,0,0,1.37-1.58A2.51,2.51,0,0,0,415,58V29.86a1.79,1.79,0,0,0-.17-.78,7.93,7.93,0,0,0-1-1.38,15.57,15.57,0,0,0-1.31-1.38c-.47-.43-.92-.82-1.36-1.17a7.3,7.3,0,0,0-1.11-.73,1.65,1.65,0,0,0-.77-.18h-13a1.59,1.59,0,0,0-.77.18,8.28,8.28,0,0,0-1.37.93,18.74,18.74,0,0,0-1.66,1.49,12.1,12.1,0,0,0-1.4,1.64,2.6,2.6,0,0,0-.59,1.38Z"/><path class="cls-1" d="M442.6,69.79V17.94h9l13.83,28.25,13.91-28.25h8.82V69.79h-6.91V28.56L467.66,56.39H463L449.6,28.56V69.79Z"/><path class="cls-1" d="M509.14,69.79V17.94h9L532,46.19l13.92-28.25h8.81V69.79h-6.91V28.56L534.2,56.39h-4.67L516.14,28.56V69.79Z"/><path class="cls-1" d="M575.25,58.21V17.94h7.08V58a2.35,2.35,0,0,0,.63,1.28,17.67,17.67,0,0,0,1.47,1.62,18.24,18.24,0,0,0,1.73,1.49,7.47,7.47,0,0,0,1.36.88.79.79,0,0,0,.28.13,1.47,1.47,0,0,0,.41,0h10.72a1.65,1.65,0,0,0,.77-.18,6.4,6.4,0,0,0,1.32-.9,19.3,19.3,0,0,0,1.64-1.52,15.94,15.94,0,0,0,1.39-1.59,2.34,2.34,0,0,0,.58-1.26V17.94h7.09V58.21a11.33,11.33,0,0,1-.24,2.31,5.81,5.81,0,0,1-1,2.18,12.71,12.71,0,0,1-1.17,1.47c-.52.57-1.08,1.16-1.69,1.75s-1.2,1.14-1.81,1.66a11.2,11.2,0,0,1-1.56,1.17,12.42,12.42,0,0,1-2.35,1,8.49,8.49,0,0,1-2.57.43H587.78a8.91,8.91,0,0,1-2.62-.43,12.28,12.28,0,0,1-2.39-1,11.83,11.83,0,0,1-1.56-1.17c-.6-.52-1.21-1.07-1.81-1.66s-1.17-1.18-1.69-1.75a12.71,12.71,0,0,1-1.17-1.47,6.43,6.43,0,0,1-1-2.18A9.6,9.6,0,0,1,575.25,58.21Z"/><path class="cls-1" d="M632.2,69.79V17.94h8.38l21.6,40v-40h7V69.79H661L639.2,30.21V69.79Z"/><path class="cls-1" d="M690.1,69.79V17.94h7.08V69.79Z"/><path class="cls-1" d="M715.24,24.68V17.94h36.65v6.74H737.11V69.79H730V24.68Z"/><path class="cls-1" d="M764.85,17.94h7.78l13.22,22.64a5,5,0,0,1,.52-.95l1.47-2.55c.6-1.07,1.3-2.28,2.09-3.63s1.61-2.74,2.44-4.15q2.94-5,6.7-11.36h7.69L789.31,47.75v22h-7.09v-22Z"/><path class="cls-1" d="M106,86.9h0c0-1,0-1.5-.5-2v-.5L56,1.88a3.76,3.76,0,0,0-6.51,0l-49,83v.5c0,.5-.5,1-.5,1.5v.5a1.84,1.84,0,0,0,.5,1.5c.5.5.5,1,1,1a1.84,1.84,0,0,0,1.5.5h98.53a1.84,1.84,0,0,0,1.5-.5l1.5-1.5C106,87.9,106,87.4,106,86.9ZM53,44.39l14,22.5H39Zm-4-8.51L29.51,67.39,14,76.4l35-59Zm-15.5,38h39l15.5,9H18ZM76,67.39,56.52,35.88V17.38l35,59Z"/></g></g></svg>