<?xml version="1.0" encoding="utf-8"?>
<!-- Generator: Adobe Illustrator 22.1.0, SVG Export Plug-In . SVG Version: 6.00 Build 0)  -->
<svg version="1.1" id="Layer_1" xmlns="http://www.w3.org/2000/svg" xmlns:xlink="http://www.w3.org/1999/xlink" x="0px" y="0px"
	 viewBox="0 0 121.6 142.7" style="enable-background:new 0 0 121.6 142.7;" xml:space="preserve">
<style type="text/css">
	.st0{fill:#FFFFFF;}
	.st1{fill:#2D2D2D;}
</style>
<title>brave_icon_1_color</title>
<g id="Layer_2_1_">
	<g id="BraveIcon-1Color">
		<g id="BraveIcon-1Color-2">
			<polygon id="white_fill" class="st0" points="91.1,114.4 33.6,114.4 11.8,56.7 11.8,19.8 109.8,19.8 109.8,56.7 			"/>
			<path class="st1" d="M117.2,34.2l3.1-6.9c0.4-0.9,0.2-1.9-0.5-2.6l-8.3-8.4c-3.6-3.7-9.1-4.9-14-3.2l-2.3,0.8L82.5,0.1L60.9,0
				l-0.1,0L39.1,0.2L26.4,14.1l-2.3-0.8c-4.9-1.7-10.4-0.5-14.1,3.3l-8.5,8.6c-0.5,0.5-0.7,1.4-0.4,2.1l3.2,7.1L0,46.2L2.8,57
				l12.9,49.1c1.5,5.7,4.9,10.6,9.7,14c0,0,15.7,11.1,31.1,21.1c2.5,2,6.1,2,8.6,0c17.4-11.4,31.1-21.1,31.1-21.1
				c4.8-3.4,8.2-8.4,9.7-14l12.8-49.1l2.8-10.8L117.2,34.2z M79.8,98.1l-6.2,4.4c-1.1,0.8-2.8,2.1-3.8,3l-1.7,1.5
				c-1,0.9-2.6,2.3-3.6,3.2l-1.7,1.5c-1,0.9-2.6,0.9-3.6,0l-1.6-1.4c-1-0.9-2.6-2.3-3.6-3.2l-1.7-1.5c-1-0.9-2.7-2.2-3.8-3l-6.1-4.3
				c-0.7-0.3-1-1.1-0.6-1.8c0.2-0.3,0.4-0.6,0.8-0.7l7.1-3.7c1.2-0.6,3.1-1.5,4.4-2l3.9-1.6c0.8-0.4,1.7-0.7,2.5-0.9l0.8,0
				c0.2,0,0.6,0,0.8,0c0.9,0.2,1.7,0.6,2.5,0.9l3.9,1.6c1.2,0.5,3.2,1.4,4.4,2l7.1,3.6c0.7,0.2,1.1,1,0.9,1.7
				C80.4,97.7,80.2,98,79.8,98.1z M108,48.8c-0.1,0.4-0.2,0.8-0.4,1.2c-0.8,1-2.2,2.7-3.2,3.6l-14,14.9c-0.9,1.1-1.2,2.6-0.7,4
				L92,78c0.5,1.4,0.6,3,0.1,4.5l-0.5,1.3c-0.7,2-2,3.9-3.7,5.2l-2.2,1.8c-1.2,0.9-2.7,1-4,0.5l-7.8-3.7c-1.4-0.7-2.8-1.6-4-2.6
				l-6.3-5.6c-1-0.9-1.1-2.5-0.2-3.5c0,0,0,0,0,0c0,0,0,0,0.1-0.1l14.1-9.5c1.1-0.8,1.5-2.3,0.9-3.5L73,52.3
				c-0.6-1.3-0.7-2.7-0.3-4.1c0.7-1.3,1.8-2.3,3.1-2.8L93,38.9c1.2-0.5,1.2-1-0.1-1.1l-10.1-0.9c-1.6-0.1-3.2,0-4.7,0.4l-8.8,2.5
				c-1.3,0.4-2.1,1.7-1.9,3l3.5,18.8c0.2,1,0.3,2.1,0.2,3.2c-0.1,0.4-1.3,1.1-2.6,1.3l-4.8,1.1c-1.6,0.3-3.1,0.3-4.7,0l-5.3-1.1
				c-1.3-0.3-2.5-0.9-2.6-1.3c-0.1-1.1-0.1-2.1,0.2-3.2l3.4-18.8c0.2-1.3-0.6-2.6-1.9-3l-8.8-2.4c-1.5-0.4-3.1-0.5-4.7-0.4l-10.1,1
				c-1.3,0.1-1.4,0.6-0.1,1.1l17.2,6.5c1.3,0.6,2.4,1.5,3.1,2.8c0.5,1.3,0.4,2.8-0.3,4.1l-5.5,10.3c-0.6,1.2-0.2,2.7,0.9,3.5
				l14.1,9.5c1,1,0.9,2.6-0.1,3.5c0,0,0,0-0.1,0.1l-6.3,5.7c-1.2,1-2.5,1.9-4,2.6l-7.8,3.7c-1.3,0.6-2.9,0.4-4-0.5L34.1,89
				c-1.7-1.4-3-3.2-3.7-5.2l-0.5-1.3c-0.5-1.5-0.4-3,0.1-4.5l2.3-5.4c0.5-1.4,0.2-2.9-0.7-4l-14-14.9c-0.9-1-2.3-2.6-3.2-3.6
				c-0.1-0.4-0.3-0.8-0.4-1.2l-0.2-0.6c0-1.3,0.2-2.5,0.5-3.7c0.6-1.1,1.2-2.1,1.9-3.1l4-5.9c0.7-1.1,2-2.8,2.8-3.9l5.4-6.7
				c0.5-0.7,1-1.3,1.6-1.9c0,0,0.1,0,0.1,0c0,0,1.1,0.2,2.4,0.4l8.2,1.6c1.3,0.2,2.9,0.6,3.6,0.7c1.2,0.1,2.4-0.1,3.5-0.5l6.5-2.1
				c1.3-0.4,3.3-1,4.6-1.3c0.7-0.1,1.4-0.1,2-0.1c0.7,0,1.4,0,2,0.1c1.3,0.3,3.4,0.9,4.6,1.3l6.5,2.1c1.1,0.4,2.3,0.6,3.5,0.5
				c0.7-0.1,2.3-0.4,3.6-0.7l8.2-1.6c1.3-0.3,2.4-0.4,2.4-0.4c0,0,0.1,0,0.1,0c0.6,0.6,1.1,1.2,1.6,1.9l5.4,6.7
				c0.8,1,2.1,2.8,2.9,3.9l4,5.9c0.9,1.3,1.7,2.8,2.3,4.3c0.1,0.8,0.2,1.7,0.2,2.6L108,48.8z"/>
		</g>
	</g>
</g>
</svg>
