<svg viewBox="0 0 84 98" xmlns="http://www.w3.org/2000/svg"><path d="m80.8813452 24.5162887 2.5330909 7.2650195c.1319726.3785033.1480014.7879311.0460257 1.1756403-.0180282.0685428-.0180282.0685428-.103701.3943135-.1172401.4458343-.1172401.4458343-.2931051 1.1146946-.3156586 1.2005778-.6673942 2.5386809-1.0461869 3.9801068-1.0822597 4.118339-2.164517 8.2395611-3.1746076 12.0900224-2.4934602 9.5051926-4.128356 15.7634431-4.5218813 17.3229971-2.1425423 8.4896762-3.8423028 11.4368293-9.3368978 15.3181504-4.8137593 3.4003863-14.8585804 10.2235711-16.7898637 11.4352291-.1845655.1157936-.3887145.2507334-.6590765.4345481-.1051229.0714714-.6153353.4212312-.7616825.5205859-.9388507.6373833-1.608661 1.045845-2.3305041 1.3828518-.9153917.4273689-1.7912807.6654479-2.6795745.6654479s-1.7641828-.238079-2.6795745-.6654479c-.721843-.3370068-1.3916533-.7454685-2.3305041-1.3828518-.1463471-.0993547-.6565596-.4491145-.7616824-.5205859-.270362-.1838147-.4745111-.3187545-.6590765-.4345481-1.9312834-1.211658-11.9761045-8.0348428-16.7898638-11.4352291-5.494595-3.8813211-7.1943554-6.8284742-9.33689131-15.3181248-.3936024-1.5595362-2.02851425-7.817767-4.50366317-17.2532488-1.02830052-3.919917-2.11056308-8.0412238-3.19282805-12.1596632-.37879462-1.441461-.7305319-2.7795987-1.04619203-3.9802091-.1758659-.6688786-.1758659-.6688786-.2931066-1.1147254-.08567319-.3257802-.08567319-.3257802-.10370153-.3943251-.1019724-.3877059-.08594247-.7971292.04602875-1.1756287l2.53309091-7.2650195-1.90116819-4.6843104c-.29424702-.7249987-.14188632-1.5553138.3904564-2.1278574.234545-.2511742.35675126-.3815323.49538477-.5289619.39531333-.4203954.84352365-.893872 1.33612823-1.4103334 1.4071841-1.4753339 2.88939934-3.0008727 4.37906056-4.4962182 1.42661829-1.4320621 3.34542556-2.20317455 5.58868586-2.46702419 1.7557112-.20650469 3.5847443-.09252525 5.3593542.21925865.0980836.01723245.1929513.03451547.2844578.05174341l7.3678113-8.39076816c.3805741-.43341342.9287052-.6817772 1.5046612-.6817772h28.6262645c.5759559 0 1.1240871.24836378 1.5046611.6817772l7.3678114 8.39076816c.0915065-.01722794.1863742-.03451096.2844578-.05174341 1.7746098-.3117839 3.603643-.42576334 5.3593542-.21925865 2.2432602.26384964 4.1620675 1.03496209 5.5886858 2.46702419 1.4896612 1.4953455 2.9718765 3.0208843 4.3790606 4.4962182.4926045.5164614.9408149.989938 1.3361282 1.4103334.1386335.1474296.2608398.2777877.3655544.3898108.6621731.7116947.8145338 1.5420098.5202868 2.2670085zm-4.0347273.6093173c-.1611168-.4620902-.1484787-.9672476.0355422-1.4206588l1.7014929-4.1923281c-.2850628-.3017034-.5928677-.6260133-.9207764-.9698026-1.3883495-1.4555871-2.8507631-2.9607454-4.3181552-4.4337369-.7066496-.7093461-1.7988903-1.1482856-3.2190822-1.3153269-1.3160118-.1547878-2.776883-.063751-4.2001447.186304-.3254515.0571791-.6209256.1181065-.8791946.1783352-.1471085.0343059-.2434926.0591018-.2821002.069867-.7406396.2065183-1.5338465-.0297882-2.0418141-.6082827l-7.551875-8.60038742h-26.8142595l-7.551875 8.60038742c-.5079676.5784945-1.3011745.814801-2.0418142.6082827-.0386076-.0107652-.1349916-.0355611-.2821001-.069867-.2582691-.0602287-.5537431-.1211561-.8791946-.1783352-1.4232617-.250055-2.884133-.3410918-4.2001448-.186304-1.4201919.1670413-2.5124326.6059808-3.2190821 1.3153269-1.46739219 1.4729915-2.92980572 2.9781498-4.31815526 4.4337369-.32790865.3437893-.63571357.6680992-.92077635.9698026l1.70149285 4.1923281c.1840209.4534112.19665898.9585686.0355422 1.4206588l-2.58063161 7.4013684c.07003098.2663185.0955781.363483.24045377.9144951.31570055 1.2007641.66747946 2.5390602 1.04631767 3.980687 1.08240025 4.1189543 2.1648029 8.2407946 3.17506147 12.0919345 2.49977016 9.5293395 4.13283896 15.7805156 4.53123586 17.3590483 1.9275832 7.6379158 3.1547053 9.7655783 7.7593434 13.0182437 4.7590702 3.3617546 14.7508084 10.1488814 16.6074449 11.3137072.2336241.1465722.4749827.306107.7825032.5151853.1140221.0775218.6227416.4262582.7594442.5190652.7749765.5261295 1.2945258.8429595 1.775003 1.0672799.4278449.1997479.7588752.2897266.9870612.2897266s.5592163-.0899787.9870613-.2897266c.4804771-.2243204 1.0000265-.5411504 1.775003-1.0672799.1367025-.092807.645422-.4415434.7594441-.5190652.3075206-.2090783.5488791-.3686131.7825032-.5151853 1.8566366-1.1648258 11.8483748-7.9519526 16.6074449-11.3137072 4.6046381-3.2526654 5.8317602-5.3803279 7.7593257-13.0181733.3983211-1.5785597 2.0313636-7.8297161 4.5129674-17.289712 1.0285628-3.9208778 2.110961-8.0426363 3.1933567-12.1614929.3788366-1.4415927.730614-2.779855 1.0463132-3.9805874.1448712-.5509825.1704208-.6481542.2404471-.914449zm-14.9056965-7.9468409s10.4835742 12.7214445 10.4835742 15.4403415-1.3187961 3.4364862-2.6447487 4.8499136c-1.3259527 1.4134273-7.1170063 7.5863711-7.8606928 8.3789919-.7436865.7928204-2.2918903 1.9947225-1.3812172 4.1580665.910673 2.163344 2.2541195 4.9161649.7601863 7.7082974-1.4941319 2.7921326-4.0535983 4.6557494-5.6936447 4.347641-1.6400464-.3083079-5.4916705-2.3287726-6.9080742-3.251701-1.4164038-.9229283-5.9055586-4.6393861-5.9055586-6.0613942 0-1.4218085 4.6404367-3.9748777 5.4976343-4.5549755.8575952-.5798984 4.7678634-2.8250587 4.8479772-3.7062807.0799149-.8814215.0494995-1.1398414-1.1044967-3.3173536-1.1539963-2.1777118-3.2321836-5.083589-2.8862829-7.0170491.3459007-1.9332604 3.6975591-2.9386038 6.0894426-3.8453684 2.3914858-.906565 6.9965373-2.6189214 7.5716469-2.8851238.5755072-.266402.4268097-.5200327-1.316013-.6858605-1.742425-.1658278-6.6876122-.8247487-8.9170813-.2009489-2.2294692.6237997-6.0383527 1.5728694-6.3468802 2.0761397-.3085276.5032703-.5806759.5202323-.263799 2.2563353.316678 1.736103 1.9479775 10.0666038 2.1062172 11.5462824.1584384 1.4796786.4681587 2.4578829-1.1211954 2.8226641-1.5895529.3647812-4.2651146.9981594-5.1845346.9981594-.9194199 0-3.5951805-.6333782-5.1845345-.9981594-1.5895529-.3647812-1.2798326-1.3429855-1.1213942-2.8226641s1.7895391-9.8101794 2.106416-11.5462824c.316678-1.736103.0445297-1.753065-.263799-2.2563353-.3085275-.5032703-4.1176099-1.45234-6.347079-2.0761397-2.2294691-.6237998-7.1744575.0351211-8.9170814.2009489-1.7426238.1658278-1.8913214.4194585-1.316013.6858605.5753084.2662024 5.1803599 1.9785588 7.5718458 2.8851238 2.3916846.9067646 5.7435419 1.912108 6.0894426 3.8453684.3459007 1.9334601-1.7324854 4.8393373-2.8862829 7.0170491-1.1539963 2.1775122-1.1846105 2.4359321-1.1044967 3.3173536.079915.881222 3.990382 3.1263823 4.8477784 3.7062807.8573963.5800978 5.4976343 3.133167 5.4976343 4.5549755 0 1.4220081-4.4889561 5.1384659-5.9053598 6.0613942-1.4164037.9229284-5.2680279 2.9433931-6.9080743 3.251701-1.6400464.3081084-4.1995127-1.5555084-5.6936447-4.347641-1.4939332-2.7921325-.1504867-5.5449534.7599876-7.7082974.910673-2.163344-.637332-3.3652461-1.3812173-4.1580665-.7434877-.7926208-6.53474-6.9655646-7.8606927-8.3789919-1.3259527-1.4134274-2.64455-2.1310166-2.64455-4.8499136s10.4835742-15.4403415 10.4835742-15.4403415 8.8463109 1.6961926 10.0390719 1.6961926c1.1927611 0 3.7770766-.9977604 6.1625987-1.7959687 2.385522-.7982082 3.97587-.8039953 3.97587-.8039953s1.5903481.0057871 3.9758701.8039953c2.385522.7982083 4.9698376 1.7959687 6.1625986 1.7959687s10.0390719-1.6961926 10.0390719-1.6961926zm-7.8591421 48.6620498c.648862.4078844.2530641 1.1767586-.337949 1.596217-.5912118.4194585-8.535199 6.5943978-9.3061202 7.2768659-.77112.6826676-1.9040442 1.8099372-2.674369 1.8099372-.7703249 0-1.9034478-1.1272696-2.674369-1.8099372-.77112-.6824681-8.7149084-6.8574074-9.3061203-7.2768659-.5912119-.4194584-.986811-1.1883326-.337949-1.596217.6490608-.4076849 2.6793389-1.4367749 5.4809357-2.8921082 2.8011993-1.4551337 6.2926096-2.6923565 6.8375026-2.6923565s4.0361045 1.2372228 6.8377013 2.6923565c2.8013981 1.4553333 4.8316761 2.4844233 5.4807369 2.8921082z" fill="#fff" transform="translate(.148 .223)"/></svg>