<svg enable-background="new 0 0 121.6 142.7" viewBox="0 0 121.6 142.7" xmlns="http://www.w3.org/2000/svg"><path d="m91.1 114.4h-57.5l-21.8-57.7v-36.9h98v36.9z" fill="#fff"/><path d="m117.2 34.2 3.1-6.9c.4-.9.2-1.9-.5-2.6l-8.3-8.4c-3.6-3.7-9.1-4.9-14-3.2l-2.3.8-12.7-13.8-21.6-.1h-.1l-21.7.2-12.7 13.9-2.3-.8c-4.9-1.7-10.4-.5-14.1 3.3l-8.5 8.6c-.5.5-.7 1.4-.4 2.1l3.2 7.1-4.3 11.8 2.8 10.8 12.9 49.1c1.5 5.7 4.9 10.6 9.7 14 0 0 15.7 11.1 31.1 21.1 2.5 2 6.1 2 8.6 0 17.4-11.4 31.1-21.1 31.1-21.1 4.8-3.4 8.2-8.4 9.7-14l12.8-49.1 2.8-10.8zm-37.4 63.9-6.2 4.4c-1.1.8-2.8 2.1-3.8 3l-1.7 1.5c-1 .9-2.6 2.3-3.6 3.2l-1.7 1.5c-1 .9-2.6.9-3.6 0l-1.6-1.4c-1-.9-2.6-2.3-3.6-3.2l-1.7-1.5c-1-.9-2.7-2.2-3.8-3l-6.1-4.3c-.7-.3-1-1.1-.6-1.8.2-.3.4-.6.8-.7l7.1-3.7c1.2-.6 3.1-1.5 4.4-2l3.9-1.6c.8-.4 1.7-.7 2.5-.9h.8.8c.9.2 1.7.6 2.5.9l3.9 1.6c1.2.5 3.2 1.4 4.4 2l7.1 3.6c.7.2 1.1 1 .9 1.7-.5.3-.7.6-1.1.7zm28.2-49.3c-.1.4-.2.8-.4 1.2-.8 1-2.2 2.7-3.2 3.6l-14 14.9c-.9 1.1-1.2 2.6-.7 4l2.3 5.5c.5 1.4.6 3 .1 4.5l-.5 1.3c-.7 2-2 3.9-3.7 5.2l-2.2 1.8c-1.2.9-2.7 1-4 .5l-7.8-3.7c-1.4-.7-2.8-1.6-4-2.6l-6.3-5.6c-1-.9-1.1-2.5-.2-3.5s0 0 .1-.1l14.1-9.5c1.1-.8 1.5-2.3.9-3.5l-5.5-10.5c-.6-1.3-.7-2.7-.3-4.1.7-1.3 1.8-2.3 3.1-2.8l17.2-6.5c1.2-.5 1.2-1-.1-1.1l-10.1-.9c-1.6-.1-3.2 0-4.7.4l-8.8 2.5c-1.3.4-2.1 1.7-1.9 3l3.5 18.8c.2 1 .3 2.1.2 3.2-.1.4-1.3 1.1-2.6 1.3l-4.8 1.1c-1.6.3-3.1.3-4.7 0l-5.3-1.1c-1.3-.3-2.5-.9-2.6-1.3-.1-1.1-.1-2.1.2-3.2l3.4-18.8c.2-1.3-.6-2.6-1.9-3l-8.8-2.4c-1.5-.4-3.1-.5-4.7-.4l-10.1 1c-1.3.1-1.4.6-.1 1.1l17.2 6.5c1.3.6 2.4 1.5 3.1 2.8.5 1.3.4 2.8-.3 4.1l-5.5 10.3c-.6 1.2-.2 2.7.9 3.5l14.1 9.5c1 1 .9 2.6-.1 3.5 0 0 0 0-.1.1l-6.3 5.7c-1.2 1-2.5 1.9-4 2.6l-7.8 3.7c-1.3.6-2.9.4-4-.5l-2.2-1.9c-1.7-1.4-3-3.2-3.7-5.2l-.5-1.3c-.5-1.5-.4-3 .1-4.5l2.3-5.4c.5-1.4.2-2.9-.7-4l-14-14.9c-.9-1-2.3-2.6-3.2-3.6-.1-.4-.3-.8-.4-1.2l-.2-.6c0-1.3.2-2.5.5-3.7.6-1.1 1.2-2.1 1.9-3.1l4-5.9c.7-1.1 2-2.8 2.8-3.9l5.4-6.7c.5-.7 1-1.3 1.6-1.9h.1s1.1.2 2.4.4l8.2 1.6c1.3.2 2.9.6 3.6.7 1.2.1 2.4-.1 3.5-.5l6.5-2.1c1.3-.4 3.3-1 4.6-1.3.7-.1 1.4-.1 2-.1.7 0 1.4 0 2 .1 1.3.3 3.4.9 4.6 1.3l6.5 2.1c1.1.4 2.3.6 3.5.5.7-.1 2.3-.4 3.6-.7l8.2-1.6c1.3-.3 2.4-.4 2.4-.4h.1c.6.6 1.1 1.2 1.6 1.9l5.4 6.7c.8 1 2.1 2.8 2.9 3.9l4 5.9c.9 1.3 1.7 2.8 2.3 4.3.1.8.2 1.7.2 2.6z" fill="#2d2d2d"/></svg>