<svg fill="none" height="624" viewBox="0 0 720 624" width="720" xmlns="http://www.w3.org/2000/svg" xmlns:xlink="http://www.w3.org/1999/xlink"><clipPath id="a"><path d="m0 0h720v624h-720z"/></clipPath><g clip-path="url(#a)"><path d="m0 0h720v624h-720z" fill="#fff"/><path d="m161.36 165c33.67 31.72 122.24 57 77.56 110.71l131.66-.71s-36.33-29.68-18.85-59.47 61.52-29.14 99.08 0 88.06 49.86 153.46-34.32c31-39.9 73.32-55.75 116.15-56.67v-124.54h-545.47c-.916 14.8089-5.838 29.0908-14.24 41.32-39.5 58.92-33.02 91.95.65 123.68z" fill="#135"/><g fill="#fff"><path d="m312.23 210.15h-1.44v-1.45h-1v1.45h-1.44v1h1.44v1.44h1v-1.44h1.44z"/><path d="m216.09 157.93h-1.45v-1.45h-1v1.45h-1.44v1h1.44v1.44h1v-1.44h1.45z"/><path d="m412.06 130.82h-1.44v-1.44h-1v1.44h-1.45v1h1.45v1.45h1v-1.45h1.44z"/><path d="m543.08 200.77h-1.44v-1.45h-1v1.45h-1.45v1h1.45v1.44h1v-1.44h1.44z"/><path d="m559.59 55.06h-1.44v-1.44h-1v1.44h-1.45v1h1.45v1.45h1v-1.45h1.44z"/><path d="m711.88 78.01h-1.45v-1.44h-1v1.44h-1.44v1h1.44v1.44h1v-1.44h1.45z"/><path d="m200.54 33.55c.359 0 .65-.291.65-.65s-.291-.65-.65-.65-.65.291-.65.65.291.65.65.65z"/><path d="m159.74 99.27c.359 0 .65-.291.65-.65s-.291-.65-.65-.65-.65.291-.65.65.291.65.65.65z"/><path d="m289.57 156.58c.359 0 .65-.291.65-.65s-.291-.65-.65-.65-.65.291-.65.65.291.65.65.65z"/><path d="m272.74 229.75c.359 0 .65-.291.65-.65s-.291-.65-.65-.65-.65.291-.65.65.291.65.65.65z"/><path d="m338.46 198.02c.359 0 .65-.291.65-.65s-.291-.65-.65-.65-.65.291-.65.65.291.65.65.65z"/><path d="m403.86 176.65c.359 0 .65-.291.65-.65s-.291-.65-.65-.65-.65.291-.65.65.291.65.65.65z"/><path d="m378.61 127.44c.359 0 .65-.291.65-.65s-.291-.65-.65-.65-.65.291-.65.65.291.65.65.65z"/><path d="m357.89 56.86c.359 0 .65-.291.65-.65s-.291-.65-.65-.65-.65.291-.65.65.291.65.65.65z"/><path d="m478.65 165c.359 0 .65-.291.65-.65s-.291-.65-.65-.65-.65.291-.65.65.291.65.65.65z"/><path d="m534.34 141.69c.359 0 .65-.291.65-.65s-.291-.65-.65-.65-.65.291-.65.65.291.65.65.65z"/><path d="m526.89 220.62c.359 0 .65-.291.65-.65s-.291-.65-.65-.65-.65.291-.65.65.291.65.65.65z"/><path d="m604.27 104.13c.359 0 .65-.291.65-.65s-.291-.65-.65-.65-.65.291-.65.65.291.65.65.65z"/><path d="m613.01 69.46c.359 0 .65-.291.65-.65s-.291-.65-.65-.65-.65.291-.65.65.291.65.65.65z"/><path d="m539.84 70.76c.359 0 .65-.291.65-.65s-.291-.65-.65-.65-.65.291-.65.65.291.65.65.65z"/><path d="m672.33 90.5c.359 0 .65-.291.65-.65s-.291-.65-.65-.65-.65.291-.65.65.291.65.65.65z"/><path d="m710.14 18.66c.359 0 .65-.291.65-.65s-.291-.65-.65-.65-.65.291-.65.65.291.65.65.65z"/><path d="m541.78 2.46998c.359 0 .65-.29101.65-.65 0-.35898-.291-.65-.65-.65s-.65.29102-.65.65c0 .35899.291.65.65.65z"/></g><path d="m320.65 23.19h-20.72v-23.19h-6.51v23.19h-20.68v-23.19h-6.48v23.19h-20.72v-23.19h-7.77v29c0 .6869.273 1.3457.759 1.8314.485.4857 1.144.7586 1.831.7586h85.47c.687 0 1.346-.2729 1.831-.7586.486-.4857.759-1.1445.759-1.8314v-29h-7.77z" fill="#34516f"/><path d="m661.25 0v18h-54.39v-18h-15.54v43.26c0 .6869.273 1.3457.759 1.8314.485.4857 1.144.7586 1.831.7586h80.29c.34 0 .677-.067.991-.1972.314-.1301.6-.3209.84-.5614.241-.2405.432-.526.562-.8403.13-.3142.197-.651.197-.9911v-43.26zm-2.59 38.73h-49.24c-.687 0-1.346-.2729-1.831-.7586-.486-.4857-.759-1.1445-.759-1.8314s.273-1.3457.759-1.8314c.485-.4857 1.144-.7586 1.831-.7586h49.21c.687 0 1.346.2729 1.831.7586.486.4857.759 1.1445.759 1.8314s-.273 1.3457-.759 1.8314c-.485.4857-1.144.7586-1.831.7586zm0-10.36h-49.24c-.687 0-1.346-.2729-1.831-.7586-.486-.4857-.759-1.1445-.759-1.8314s.273-1.3457.759-1.8314c.485-.4857 1.144-.7586 1.831-.7586h49.21c.687 0 1.346.2729 1.831.7586.486.4857.759 1.1445.759 1.8314s-.273 1.3457-.759 1.8314c-.485.4857-1.144.7586-1.831.7586z" fill="#34516f"/><path d="m257.84 205.14c9.654 0 17.48-7.826 17.48-17.48s-7.826-17.48-17.48-17.48-17.48 7.826-17.48 17.48 7.826 17.48 17.48 17.48z" fill="#fff"/><path d="m257.89 178-9.84 16.83h19.59zm-4 13.53 4-6.72 4 6.69z" fill="#ff5000"/><path d="m297.63 239.11-13.87 13.72 18.93 5zm-7.42 12 5.63-5.45 2.15 7.5z" fill="#34516f"/><path d="m462 127.44-5.15 18.81 18.91-5.09zm-.41 14.12 2.15-7.53 5.61 5.41z" fill="#fff"/><path d="m316.42 68.17-13.88 13.71 18.88 5.05zm-7.41 12 5.63-5.45 2.15 7.5z" fill="#fff"/><path d="m181.42 67.87v63.45c0 .687.273 1.346.759 1.831.485.486 1.144.759 1.831.759h85.48c.687 0 1.346-.273 1.831-.759.486-.485.759-1.144.759-1.831v-63.45z" fill="#fff"/><path d="m272.09 62.69c0-.6869-.273-1.3457-.759-1.8314-.485-.4857-1.144-.7586-1.831-.7586h-85.48c-.341-.0013-.679.0647-.994.1943-.316.1295-.602.3201-.844.5607-.241.2407-.433.5266-.564.8415s-.198.6525-.198.9935v5.18h90.66z" fill="#662d91"/><path d="m235.83 76.93h-18.13v18.13h18.13z" fill="#9e1f63"/><path d="m260.43 76.93h-18.13v18.13h18.13z" fill="#662d91"/><path d="m211.22 76.93h-18.13v18.13h18.13z" fill="#ff5000"/><path d="m258.49 100.89h-63.46c-1.071 0-1.94.869-1.94 1.94v.01c0 1.071.869 1.94 1.94 1.94h63.46c1.071 0 1.94-.869 1.94-1.94v-.01c0-1.071-.869-1.94-1.94-1.94z" fill="#e7ebee"/><path d="m258.49 108.66h-63.46c-1.071 0-1.94.869-1.94 1.94v.01c0 1.071.869 1.94 1.94 1.94h63.46c1.071 0 1.94-.869 1.94-1.94v-.01c0-1.071-.869-1.94-1.94-1.94z" fill="#e7ebee"/><path d="m258.49 116.43h-63.46c-1.071 0-1.94.869-1.94 1.94v.01c0 1.071.869 1.94 1.94 1.94h63.46c1.071 0 1.94-.869 1.94-1.94v-.01c0-1.071-.869-1.94-1.94-1.94z" fill="#e7ebee"/><path d="m243.6 124.2h-33.68c-1.071 0-1.94.869-1.94 1.94v.01c0 1.071.869 1.94 1.94 1.94h33.68c1.071 0 1.94-.869 1.94-1.94v-.01c0-1.071-.869-1.94-1.94-1.94z" fill="#e7ebee"/><path d="m341.37 175.36c12.161 0 22.02-9.859 22.02-22.02s-9.859-22.02-22.02-22.02-22.02 9.859-22.02 22.02 9.859 22.02 22.02 22.02z" fill="#fff"/><path d="m341.042 152.086c2.31-.619 3.43-3.927 2.502-7.39-.927-3.462-3.552-5.767-5.862-5.148s-3.43 3.928-2.503 7.39c.928 3.462 3.553 5.767 5.863 5.148z" fill="#9e1f63"/><path d="m342.05 155.85c-2.438.652-4.6 2.076-6.161 4.059s-2.438 4.418-2.499 6.941c-.002.398.089.79.264 1.148.175.357.43.668.746.911.316.242.683.407 1.073.484.391.077.793.062 1.177-.043l16.84-4.51c.385-.102.741-.291 1.041-.553s.535-.589.688-.957c.153-.367.219-.765.193-1.162s-.143-.783-.342-1.128c-1.318-2.156-3.299-3.827-5.646-4.763-2.347-.935-4.934-1.085-7.374-.427z" fill="#9e1f63"/><path d="m515.56 13.47h-129.51v84.18h129.51z" fill="#fff"/><path d="m484.47 32.25h-67.34v39.5h67.34z" fill="#662d91"/><path d="m481.88 76.93h-62.16c-1.43 0-2.59 1.1596-2.59 2.59s1.16 2.59 2.59 2.59h62.16c1.43 0 2.59-1.1596 2.59-2.59s-1.16-2.59-2.59-2.59z" fill="#e7ebee"/><path d="m481.88 86.65h-62.16c-1.43 0-2.59 1.1596-2.59 2.59s1.16 2.59 2.59 2.59h62.16c1.43 0 2.59-1.1596 2.59-2.59s-1.16-2.59-2.59-2.59z" fill="#e7ebee"/><path d="m515.56 13.47h-129.51v10.36h129.51z" fill="#ff5000"/><path d="m478 54.06-11.73-14.51-17.11 21.17-10.41-12.88-15.14 18.73h54.39z" fill="#fff"/><path d="m449.16 60.72-1.95 2.41-1.84-7.09z" fill="#662d91" opacity=".1"/><path d="m391.23 19.95c.718 0 1.3-.5821 1.3-1.3 0-.718-.582-1.3-1.3-1.3s-1.3.582-1.3 1.3c0 .7179.582 1.3 1.3 1.3z" fill="#fff"/><path d="m396.34 19.95c.718 0 1.3-.5821 1.3-1.3 0-.718-.582-1.3-1.3-1.3s-1.3.582-1.3 1.3c0 .7179.582 1.3 1.3 1.3z" fill="#fff"/><path d="m401.44 19.95c.718 0 1.3-.5821 1.3-1.3 0-.718-.582-1.3-1.3-1.3s-1.3.582-1.3 1.3c0 .7179.582 1.3 1.3 1.3z" fill="#fff"/><path d="m560.88 178c0 .34.067.677.197.991s.321.6.562.84c.24.241.526.432.84.562s.651.197.991.197h41.32c11.987-15.483 27.015-28.35 44.16-37.81v-12.78h-88.07z" fill="#fff"/><path d="m646.36 122.26h-82.89c-.687 0-1.346.273-1.831.759-.486.485-.759 1.144-.759 1.831v5.15h88.07v-5.18c-.008-.682-.284-1.333-.769-1.812s-1.139-.748-1.821-.748z" fill="#662d91"/><path d="m636.65 145.57h-33.68c-.687 0-1.346.273-1.831.759-.486.485-.759 1.144-.759 1.831s.273 1.346.759 1.831c.485.486 1.144.759 1.831.759h33.08c1-.73 2.09-1.44 3.14-2.14.031-.148.048-.299.05-.45 0-.34-.067-.677-.197-.991s-.321-.6-.562-.84c-.24-.241-.526-.432-.84-.562s-.651-.197-.991-.197z" fill="#e7ebee"/><path d="m600.42 158.52c0 .34.067.677.197.991s.321.6.562.84c.24.241.526.432.84.562s.651.197.991.197h20c2-1.8 4.047-3.527 6.14-5.18h-26.18c-.68.01-1.328.288-1.806.773-.477.484-.744 1.137-.744 1.817z" fill="#e7ebee"/><path d="m577.07 166.29c-.687 0-1.346.273-1.831.759-.486.485-.759 1.144-.759 1.831s.273 1.346.759 1.831c.485.486 1.144.759 1.831.759h35.42c1.633-1.78 3.3-3.507 5-5.18z" fill="#e7ebee"/><path d="m593.91 136.5h-19.43v24.61h19.43z" fill="#ff5000"/><path d="m584.2 148.16c1.193 0 2.16-1.451 2.16-3.24s-.967-3.24-2.16-3.24-2.16 1.451-2.16 3.24.967 3.24 2.16 3.24z" fill="#fff"/><path d="m584.2 150.1c-1.546 0-3.029.614-4.122 1.708-1.094 1.093-1.708 2.576-1.708 4.122h11.65c0-1.545-.613-3.026-1.704-4.119s-2.572-1.708-4.116-1.711z" fill="#fff"/><path d="m440.21 194.55c-2.807 2.814-5.075 6.118-6.69 9.75 6.072 3.233 11.857 6.98 17.29 11.2 11.45 8.89 24.12 17 38 21.57 5.001-6.528 7.331-14.714 6.515-22.897-.815-8.183-4.715-15.748-10.906-21.161-6.191-5.412-14.21-8.265-22.428-7.979-8.219.285-16.02 3.688-21.821 9.517z" fill="#fff"/><path d="m463.68 224.69c1.88 1.21 3.79 2.39 5.72 3.51l6.14-23-9.32 9.31z" fill="#9e1f63"/><path d="m715.82 4.6v115.46c-47.43 2.16-87.18 22.25-115.18 58.3-16.06 20.67-32.12 36-47.74 45.56-13.48 8.28-27.13 12.47-40.48 12.47-11.67 0-30.46-2.54-58.79-24.52-19.21-14.87-40.55-23.07-60.21-23.07-20.24 0-36.46 8.66-45.68 24.37-8.07 13.75-7.06 29.53 2.92 45.66 2.569 4.112 5.49 7.993 8.73 11.6l-111.37.63c6.41-10 8.89-19.81 7.36-29.24-3.79-23.34-30.57-39.95-56.46-56-13.25-8.22-25.77-16-34.43-24.15-17.43-16.42-25.55-31.38-26.32-48.5-.86-18.89 7.75-41.55 26.34-69.27 8.011-11.7122 13.043-25.2024 14.66-39.3zm4.6-4.6h-545.47c-.916 14.8089-5.838 29.0908-14.24 41.32-39.5 58.92-33 92 .65 123.68s122.24 57 77.56 110.71l131.66-.71s-36.33-29.68-18.85-59.47c8.7-14.81 24-22.09 41.72-22.09 18 0 38.47 7.44 57.36 22.09 17.61 13.64 38.09 25.47 61.61 25.47 26.62 0 57.13-15.12 91.85-59.81 31-39.9 73.32-55.75 116.15-56.67z" fill="#135" opacity=".2"/><path d="m321.3 254.52c.359 0 .65-.291.65-.65s-.291-.65-.65-.65-.65.291-.65.65.291.65.65.65z" fill="#fff"/><path d="m372.42 279c.001-.681-.132-1.355-.392-1.984-.259-.629-.641-1.2-1.122-1.682-.482-.481-1.053-.863-1.682-1.122-.629-.26-1.303-.393-1.984-.392h-124.29c-1.374 0-2.691.546-3.663 1.517-.971.972-1.517 2.289-1.517 3.663v5.18h134.65z" fill="#89a"/><path d="m237.77 284.14v76.41c0 1.374.546 2.691 1.517 3.663.972.971 2.289 1.517 3.663 1.517h124.32c.681.001 1.355-.132 1.984-.392.629-.259 1.2-.641 1.682-1.122.481-.482.863-1.053 1.122-1.682.26-.629.393-1.303.392-1.984v-76.41z" fill="#e7ebee"/><path d="m305.11 352.78c14.304 0 25.9-11.596 25.9-25.9s-11.596-25.9-25.9-25.9-25.9 11.596-25.9 25.9 11.596 25.9 25.9 25.9z" fill="#89a" opacity=".2"/><path d="m305.11 350.83c14.304 0 25.9-11.596 25.9-25.9s-11.596-25.9-25.9-25.9-25.9 11.596-25.9 25.9 11.596 25.9 25.9 25.9z" fill="#fff"/><path d="m305.11 302.53c4.433 0 8.766 1.315 12.451 3.777 3.686 2.463 6.558 5.964 8.254 10.059 1.696 4.096 2.139 8.602 1.274 12.95-.866 4.347-3.001 8.34-6.136 11.474-3.135 3.133-7.129 5.267-11.477 6.131-4.348.863-8.854.418-12.949-1.28-4.095-1.697-7.594-4.571-10.055-8.258s-3.774-8.02-3.772-12.453c.008-5.94 2.372-11.635 6.573-15.834s9.897-6.561 15.837-6.566zm0-1.15c-4.66 0-9.216 1.382-13.09 3.971-3.875 2.59-6.895 6.27-8.677 10.575-1.783 4.306-2.249 9.044-1.34 13.614.91 4.57 3.155 8.768 6.451 12.063 3.296 3.294 7.495 5.538 12.066 6.446 4.571.907 9.308.439 13.613-1.345 4.305-1.785 7.984-4.806 10.571-8.682 2.588-3.876 3.968-8.432 3.966-13.092 0-3.093-.609-6.157-1.794-9.015-1.184-2.857-2.919-5.454-5.107-7.641s-4.785-3.921-7.644-5.104c-2.858-1.183-5.921-1.791-9.015-1.79z" fill="#e7ebee" opacity=".3"/><path d="m310.79 329.48 7.98 4.57-13.59-23.44v9.55z" fill="#9e1f63"/><path d="m305.15 320.11.03.05v-9.55l-13.73 23.47 8.09-4.6z" fill="#ff5000"/><path d="m310.79 329.48h-11.25l-8.09 4.6 27.32-.03z" fill="#662d91"/><path d="m313.74 542.89s3.72 2.63 7.1 2.89c.164.013.316.089.424.212s.164.284.156.448c-.14 3.87-1.65 11-10.1 9.26-8.9-1.88 2.42-12.81 2.42-12.81z" fill="#89a"/><path d="m314.71 543.52c-.6-.37-1-.63-1-.63s-11.29 10.93-2.39 12.81c1.594.404 3.266.383 4.85-.06-1.88-4.7-4.65-4.97-1.46-12.12z" fill="#135" opacity=".3"/><path d="m319.97 544.69s-1 2.86 2.73 2.6l.29-2.07z" fill="#135"/><path d="m301 541.46-2.53-6.33c-.046-.111-.123-.208-.221-.278s-.214-.112-.334-.12c-.121-.009-.241.017-.348.073s-.196.141-.257.245c-.818 1.429-1.291 3.029-1.383 4.672-.092 1.644.2 3.287.853 4.798 3.64-1.39 4.22-3.06 4.22-3.06z" fill="#34516f"/><path d="m89.79 598.14c7.77-13.88 60.87 5.79 117.2 0s148.29-15 146.34 10.41-87.41 1.16-154.11 0-117.2 3.45-109.43-10.41z" fill="#1652f0" opacity=".1"/><path d="m207.31 509.26-30.24 69.4s-3.6-1-9.3-3c12.65-34 10.54-54.9 21.45-70-2.85-19.72-6.2-42.47-2.35-59.34s35-1.49 35-1.49-8.65 51.93-14.56 64.43z" fill="#34516f"/><path d="m207.31 509.26-30.24 69.4s-3.6-1-9.3-3c12.65-34 10.54-54.9 21.45-70-2.85-19.72-6.2-42.47-2.35-59.34s35-1.49 35-1.49-8.65 51.93-14.56 64.43z" fill="#34516f"/><path d="m235.02 425.29 14.54 156.33h-9.09c-1.59-24.08-18-44.2-12.06-72.36-7.47-15-38.52-52.51-32.23-75.8s23.62-17 23.62-17z" fill="#89a"/><path d="m244.53 581.67-6.85-72.28c-.37-4-.89-8.07-1.55-12.06l-12.11-72.64 1-.16 12.11 72.64c.67 4 1.2 8.09 1.57 12.13l6.84 72.27z" fill="#fff"/><path d="m169.49 576.28.23.07.79.27h.11l.82.27c10.51-15.31 9.15-44.63 22.71-69.52 3-6.79 1.79-23.74 1.28-36.8-.046-1.241.285-2.467.949-3.517.664-1.049 1.63-1.873 2.771-2.363 4.293-1.692 8.676-3.144 13.13-4.35 14.83-4.4 22.58-9.22 21.9-20.56-.277-2.525-1.2-4.936-2.68-7 1.398.114 2.805.06 4.19-.16l-.68-7.38-15.22-8.86s-17.33-6.26-23.62 17c-.448 1.697-.713 3.437-.79 5.19-4.15.69-7.43 2.88-8.52 7.66-3.85 16.87-.5 39.62 2.35 59.34-10.91 15.13-8.8 36.05-21.45 70l1 .35z" fill="#135" opacity=".3"/><path d="m217.606 356.205c4.492-1.204 6.858-6.941 5.284-12.815-1.574-5.873-6.491-9.659-10.983-8.455-4.492 1.203-6.857 6.941-5.283 12.814 1.573 5.873 6.49 9.659 10.982 8.456z" fill="#56b4fc"/><path d="m246.88 376.94 8.68 6.19 24.65-21.93 1.49-8.93c.071-.428.299-.815.639-1.085.34-.269.768-.403 1.201-.375l3.26.21 8.74-9.71c.275-.306.65-.502 1.058-.554.408-.051.82.046 1.162.274.19.127.353.29.479.481.126.19.213.404.255.629s.038.455-.01.679c-.049.223-.142.434-.274.621l-5.79 8.19 2.43 7c.145.413.17.858.073 1.284-.098.427-.313.817-.623 1.126l-1.1 1.1c-1.66 1.67-2.66 3.35-5.14 4.18l-2.05.68s-19.87 27.56-27.29 29.27-16.3-4-16.3-4l-5-12.41z" fill="#56b4fc"/><path d="m217.61 356.2c1.449-.401 2.727-1.265 3.64-2.46-4.72-7.2-3.3-12.74-3.18-17 .01-.177.01-.353 0-.53-.868-.644-1.867-1.09-2.926-1.306s-2.153-.197-3.204.056c-4.49 1.2-6.85 6.94-5.28 12.81s6.46 9.64 10.95 8.43z" fill="#1652f0" opacity=".3"/><path d="m286.04 367c-10.9 6.33-15.44 22.12-28.71 25.39-6.61 1.62-11-2.11-18.56-9.21l3.68 9.1s8.88 5.69 16.3 4 27.29-29.28 27.29-29.28z" fill="#1652f0" opacity=".3"/><path d="m237.51 379.86-.08.03 1.34 3.31z" fill="#1652f0"/><path d="m217.68 361.76c8.67 0 24.06 11.51 29.78 14-3.29 5.87-.92 12.44-6.41 18.26-4.67-1.29-7.31-2.64-9.14-4.06.47 5.76-3.93 8.19-2.64 15.37s9.62 21.21 9.62 21.21-2.51 5.35-24.59-2.44-13.55-61.31-13.55-61.31z" fill="#135"/><path d="m209.42 387c4.042 4.023 8.63 7.457 13.63 10.2 2.35 1.34 4.39 2.37 6.2 3.2.1-.48.21-.93.34-1.37-1.72-.79-3.64-1.77-5.84-3-4.894-2.699-9.381-6.075-13.33-10.03-3.326-3.326-7.039-6.24-11.06-8.68 0 .53 0 1.05-.07 1.59 3.669 2.308 7.067 5.022 10.13 8.09z" fill="#fff" opacity=".15"/><path d="m224.99 393.94c2 1.15 3.81 2.08 5.43 2.84.18-.43.35-.86.52-1.29-1.57-.74-3.3-1.63-5.25-2.75-4.905-2.687-9.407-6.054-13.37-10-3.78-3.78-8.056-7.03-12.71-9.66 0 .5-.08 1-.11 1.54 4.331 2.514 8.318 5.58 11.86 9.12 4.042 4.023 8.63 7.457 13.63 10.2z" fill="#fff" opacity=".15"/><path d="m217.98 405.94c-4.908-2.684-9.409-6.05-13.37-10-1.698-1.666-3.481-3.245-5.34-4.73 0 .63.07 1.25.11 1.87 1.65 1.36 3 2.62 4.27 3.86 8.009 7.7 17.753 13.359 28.41 16.5-.25-.56-.48-1.11-.71-1.65-4.683-1.385-9.175-3.35-13.37-5.85z" fill="#fff" opacity=".15"/><path d="m229.57 419c-5.424-1.416-10.621-3.587-15.44-6.45-4.909-2.681-9.411-6.048-13.37-10l-.29-.27c.15.8.3 1.58.47 2.36 3.746 3.564 7.941 6.624 12.48 9.1 4.912 2.919 10.211 5.131 15.74 6.57 2.589.691 5.134 1.539 7.62 2.54-.32-.58-.67-1.21-1-1.89-2.31-.87-4.28-1.43-6.21-1.96z" fill="#fff" opacity=".15"/><path d="m231.5 415.69c-5.426-1.417-10.627-3.589-15.45-6.45-4.906-2.686-9.407-6.053-13.37-10-.95-.91-1.92-1.84-3-2.8.08.7.15 1.39.24 2.08.63.58 1.23 1.16 1.82 1.72 8.248 7.931 18.337 13.69 29.36 16.76 1 .29 2 .57 3.09.91l-.84-1.7z" fill="#fff" opacity=".15"/><path d="m225.72 425.59c-5.429-1.409-10.631-3.581-15.45-6.45-2-1.16-3.76-2.24-5.24-3.25.588 1.05 1.257 2.053 2 3 .78.48 1.62 1 2.52 1.49 4.916 2.917 10.218 5.129 15.75 6.57 1.23.35 2.47.7 3.8 1.14 1.559.23 3.135.323 4.71.28-2.632-1.106-5.334-2.034-8.09-2.78z" fill="#fff" opacity=".15"/><path d="m207.51 390.34c4.037 4.029 8.626 7.463 13.63 10.2 2.577 1.506 5.249 2.843 8 4-.06-.54-.11-1.06-.12-1.55-2.462-1.08-4.862-2.295-7.19-3.64-4.909-2.681-9.411-6.048-13.37-10-2.838-2.826-5.954-5.359-9.3-7.56v1.65c2.991 2.037 5.786 4.347 8.35 6.9z" fill="#fff" opacity=".15"/><path d="m212.2 415.84c-3.623-1.981-7.034-4.326-10.18-7 .27.86.56 1.71.87 2.52 2.715 2.134 5.594 4.05 8.61 5.73 4.916 2.917 10.218 5.129 15.75 6.57 3.633.945 7.166 2.237 10.55 3.86.443-.192.822-.508 1.09-.91l-.08-.14c-3.575-1.749-7.317-3.132-11.17-4.13-5.426-1.432-10.624-3.62-15.44-6.5z" fill="#fff" opacity=".15"/><path d="m203.77 363.84c4.909 2.681 9.411 6.048 13.37 10 7.562 7.276 16.673 12.746 26.65 16 .18-.43.34-.86.48-1.3-9.793-3.184-18.739-8.541-26.17-15.67-4.034-4.032-8.624-7.466-13.63-10.2l-.09-.05-2.57.16c.61.31 1.28.66 1.96 1.06z" fill="#fff" opacity=".15"/><path d="m201.85 367.14c4.905 2.684 9.403 6.051 13.36 10 7.565 7.267 16.671 12.736 26.64 16 .305-.38.589-.778.85-1.19-4.607-1.379-9.027-3.32-13.16-5.78-4.903-2.686-9.401-6.053-13.36-10-4.039-4.026-8.628-7.46-13.63-10.2l-2.08-1.15c-.06.43-.12.92-.19 1.48.51.24 1.03.53 1.57.84z" fill="#fff" opacity=".15"/><path d="m232.7 380.74c3.837 2.264 7.907 4.108 12.14 5.5.09-.46.18-.92.25-1.38-4.068-1.353-7.981-3.136-11.67-5.32-4.905-2.687-9.407-6.053-13.37-10-2.748-2.749-5.763-5.218-9-7.37l-2.34.15c3.77 2.329 7.256 5.087 10.39 8.22 4.03 4.023 8.609 7.457 13.6 10.2z" fill="#fff" opacity=".15"/><path d="m205.58 393.64c4.037 4.029 8.626 7.463 13.63 10.2 3.511 2.073 7.215 3.801 11.06 5.16-.2-.57-.37-1.12-.53-1.65-3.403-1.282-6.692-2.851-9.83-4.69-4.908-2.684-9.409-6.05-13.37-10-2.3-2.283-4.777-4.38-7.41-6.27v1.74c2.272 1.689 4.427 3.53 6.45 5.51z" fill="#fff" opacity=".15"/><path d="m199.92 370.44c4.908 2.684 9.409 6.05 13.37 10 4.04 4.026 8.628 7.46 13.63 10.2 1.75 1 3.31 1.82 4.75 2.52.109-.474.186-.955.23-1.44-1.31-.64-2.72-1.39-4.28-2.28-4.907-2.684-9.409-6.051-13.37-10-4.039-4.026-8.628-7.46-13.63-10.2l-.63-.35c-.047.48-.097.98-.15 1.5z" fill="#fff" opacity=".15"/><path d="m221 367.24c4.04 4.026 8.628 7.46 13.63 10.2 3.431 2.02 7.043 3.714 10.79 5.06.07-.47.15-.93.23-1.39-3.592-1.303-7.056-2.933-10.35-4.87-4.905-2.687-9.407-6.054-13.37-10-1.48-1.42-3-2.86-5-4.44l-2.11.13c2.173 1.634 4.237 3.408 6.18 5.31z" fill="#fff" opacity=".15"/><path d="m222.92 363.94c4.044 4.025 8.636 7.459 13.64 10.2 3.092 1.807 6.326 3.359 9.67 4.64.12-.44.28-.88.44-1.31-3.256-1.256-6.406-2.771-9.42-4.53-4.796-2.625-9.201-5.907-13.09-9.75-.981-.373-1.983-.691-3-.95.59.57 1.18 1.14 1.76 1.7z" fill="#fff" opacity=".15"/><path d="m256.35 593.7c-5.64-1.91-6.79-7.78-6.79-7.78h-7.69v13.48h3.38v-2.32c-.006-.278.086-.549.26-.767.173-.217.418-.367.69-.423.164-.028.333-.019.494.025s.31.123.437.23c.128.108.23.241.301.392.071.152.107.316.108.483-.001.313.059.623.178.912.12.29.295.553.516.774s.484.396.774.515c.289.12.599.18.912.179h11.39s.68-3.79-4.96-5.7z" fill="#135"/><path d="m178.89 592.41c-4.73-3.61-3.94-9.54-3.94-9.54l-7.28-2.46-4.32 12.77 3.2 1.08.74-2.2c.086-.265.262-.492.498-.642.235-.15.515-.213.792-.178.165.026.322.088.46.181.139.093.255.216.341.359.085.143.139.303.156.469s-.002.333-.057.491c-.197.597-.149 1.247.132 1.809s.773.99 1.368 1.191l10.79 3.65s1.85-3.39-2.88-6.98z" fill="#135"/><path d="m147.42 594.22h-37.55c-.359 0-.65.291-.65.65v3.88c0 .359.291.65.65.65h37.55c.359 0 .65-.291.65-.65v-3.88c0-.359-.291-.65-.65-.65z" fill="#ff5000"/><path d="m153.24 589.04h-37.55c-.359 0-.65.291-.65.65v3.88c0 .359.291.65.65.65h37.55c.359 0 .65-.291.65-.65v-3.88c0-.359-.291-.65-.65-.65z" fill="#662d91"/><path d="m148.71 583.86h-37.55c-.359 0-.65.291-.65.65v3.88c0 .359.291.65.65.65h37.55c.359 0 .65-.291.65-.65v-3.88c0-.359-.291-.65-.65-.65z" fill="#9e1f63"/><path d="m153.89 578.68h-37.55c-.359 0-.65.291-.65.65v3.88c0 .359.291.65.65.65h37.55c.359 0 .65-.291.65-.65v-3.88c0-.359-.291-.65-.65-.65z" fill="#ff5000"/><path d="m113.11 578.68h37.55c.359 0 .65-.291.65-.65v-3.88c0-.359-.291-.65-.65-.65h-37.55c-.359 0-.65.291-.65.65v3.88c0 .359.291.65.65.65z" fill="#662d91"/><path d="m113.1 578.68h5.63c-.171-.003-.333-.072-.453-.194-.12-.121-.187-.285-.187-.456v-3.88c0-.171.067-.334.187-.456s.282-.191.453-.194h-5.63c-.172 0-.338.068-.46.19-.121.122-.19.288-.19.46v3.85c-.004.088.01.176.041.258.03.082.078.158.138.221.061.064.134.114.215.149.081.034.168.052.256.052z" fill="#135" opacity=".2"/><path d="m116.24 583.86h12.11c-.172 0-.338-.069-.46-.19-.122-.122-.19-.288-.19-.46v-3.88c0-.172.068-.338.19-.46s.288-.19.46-.19h-12.11c-.172 0-.338.068-.46.19s-.19.288-.19.46v3.88c0 .172.068.338.19.46.122.121.288.19.46.19z" fill="#135" opacity=".2"/><path d="m111.16 589h18.58c-.172 0-.338-.068-.46-.19s-.19-.288-.19-.46v-3.88c0-.172.068-.338.19-.46.122-.121.288-.19.46-.19h-18.58c-.172 0-.338.069-.46.19-.122.122-.19.288-.19.46v3.88c0 .172.068.338.19.46s.288.19.46.19z" fill="#135" opacity=".2"/><path d="m115.69 594.22h12.11c-.172 0-.338-.068-.46-.19-.121-.122-.19-.288-.19-.46v-3.88c0-.172.069-.338.19-.46.122-.121.288-.19.46-.19h-12.11c-.085 0-.17.017-.249.05-.079.032-.15.08-.211.14-.06.061-.108.132-.14.211-.033.079-.05.164-.05.249v3.88c0 .085.017.17.05.249.032.079.08.15.14.211.061.06.132.108.211.141.079.032.164.049.249.049z" fill="#135" opacity=".2"/><path d="m109.86 599.4h5.64c-.172 0-.338-.069-.46-.19-.122-.122-.19-.288-.19-.46v-3.88c0-.172.068-.338.19-.46.122-.121.288-.19.46-.19h-5.64c-.171.003-.333.072-.453.194-.12.121-.187.285-.187.456v3.88c0 .171.067.335.187.456.12.122.282.191.453.194z" fill="#135" opacity=".2"/><path d="m131.88 573.5c10.731 0 19.43-8.699 19.43-19.43s-8.699-19.43-19.43-19.43-19.43 8.699-19.43 19.43 8.699 19.43 19.43 19.43z" fill="#ff5000"/><path d="m131.88 571.42c-3.432.002-6.787-1.014-9.642-2.919-2.854-1.905-5.08-4.614-6.394-7.785-1.315-3.17-1.66-6.658-.992-10.025.669-3.366 2.32-6.458 4.746-8.886 2.426-2.427 5.518-4.081 8.884-4.751 3.365-.67 6.854-.327 10.025.986s5.881 3.536 7.788 6.39c1.907 2.853 2.925 6.208 2.925 9.64-.005 4.598-1.834 9.007-5.084 12.259s-7.658 5.083-12.256 5.091zm0-33.69c-3.235-.002-6.397.955-9.087 2.751-2.691 1.796-4.788 4.349-6.026 7.337-1.239 2.988-1.564 6.277-.933 9.449.63 3.173 2.188 6.087 4.475 8.374s5.201 3.845 8.374 4.475c3.172.631 6.461.306 9.449-.933 2.988-1.238 5.541-3.335 7.337-6.026 1.796-2.69 2.753-5.852 2.751-9.087-.008-4.331-1.732-8.483-4.795-11.545-3.062-3.063-7.214-4.787-11.545-4.795z" fill="#ff1900"/><path d="m131.93 544.36-9.84 16.84h19.58zm-4 13.53 4-6.72 4 6.68z" fill="#fff"/><path d="m287.6 610.41s-3.21-.77-3.34-1.14c-6.87-18.52 4.4-24.27 8.21-31.89s3.23-19.38 3.23-19.38h16.19s12.95 14.24 2.59 30.43-9.71 22-9.71 22z" fill="#89a"/><path d="m303.72 606.12c.2 1.3.49 2.77.84 4.29h.21s-.57-5.18 8-19.3c-7.76 5.02-9.88 9.59-9.05 15.01z" fill="#135" opacity=".3"/><path d="m299.09 562.92-3.35-2.39c0 3.87-.52 11.34-3.27 16.85-3.81 7.61-15 13.35-8.25 31.79.15.4 4.71 1.24 4.71 1.24h1.11c-5.62-16.75 8.43-24.04 9.05-47.49z" fill="#135" opacity=".3"/><path d="m296.35 593.57 12.36 10.6c.39.331.703.744.917 1.208.214.465.324.97.323 1.482 0 .942-.374 1.845-1.04 2.51-.666.666-1.568 1.04-2.51 1.04h-10.05z" fill="#89a"/><path d="m318.5 574.38c0 16.6-2.08 27.61-.78 30.85s4.53 1.29 4.53 5.18h-7.77l-5.18-31.73z" fill="#89a"/><path d="m282.42 608.86c-16.84-12.19 1.4-21.66-4.82-34.71.374-.664.937-1.204 1.616-1.551s1.446-.485 2.204-.399c7.77 8.42-9.07 24.61 3.24 31.73 3 1.26 8.53 0 8.53 0l.1 6.48h-6.08c-1.719-.008-3.393-.549-4.79-1.55z" fill="#89a"/><path d="m314.1 542.15c-1.109-1.342-2.512-2.411-4.1-3.124-1.589-.713-3.32-1.05-5.06-.986-5.72 0-15.16 9.71-16.84 11.49-.082.086-.139.193-.164.31s-.016.238.024.35c.33.89 1.35 3 3.57 3.11-1.242 1.711-2.342 3.52-3.29 5.41-.042.089-.064.186-.064.285 0 .098.022.196.064.285.362.699.889 1.298 1.536 1.746.646.448 1.393.731 2.174.824-.63 1.69-.08 4.81.2 6.14.016.085.05.165.099.237.049.071.111.131.185.177.073.046.155.077.24.09s.173.008.256-.014c1-.23 2.74-.75 3.39-1.58.237 1.668 1.068 3.195 2.34 4.3.096.073.211.118.331.128.121.011.242-.013.349-.068 1.422-.667 2.663-1.665 3.62-2.91 1.28 1.381 2.78 2.54 4.44 3.43.102.064.22.098.34.098s.238-.034.34-.098c1.474-.958 2.66-2.299 3.43-3.88 1.837.037 3.669-.192 5.44-.68.096-.024.185-.07.261-.134.075-.064.134-.145.173-.236.039-.092.056-.19.05-.289s-.035-.195-.084-.281c-.54-1-1.83-2-2-3.73.89-.374 1.701-.914 2.39-1.59.081-.067.145-.153.185-.251s.055-.204.044-.309c-.011-.104-.047-.205-.107-.292-.059-.088-.139-.159-.232-.208-2.51-1.4-9.21-6.4-3.53-17.75z" fill="#ff5000"/><path d="m309.8 544.43.47-9.55c.01-.121-.014-.242-.069-.35-.056-.108-.14-.199-.244-.261-.104-.063-.224-.095-.345-.093-.122.002-.24.038-.342.104-1.7 1-5 3.23-5.67 6.88-.92 4.97 6.2 3.27 6.2 3.27z" fill="#89a"/><path d="m278.31 576c.835-.061 1.643-.317 2.361-.748.717-.431 1.323-1.024 1.769-1.732-.61-3.25-2.4-4.26-1.93-7.35.019-.116.006-.234-.038-.343s-.117-.203-.21-.273c-.094-.071-.206-.114-.322-.125-.117-.011-.234.01-.34.061-.962.524-1.856 1.165-2.66 1.91-.672-1.375-1.804-2.472-3.2-3.1-.155-.073-.333-.083-.496-.027-.162.056-.297.174-.374.327-.355.926-.472 1.927-.34 2.91 0 0-1.81-.63-3.23-1-.1-.027-.206-.03-.307-.008-.102.021-.197.067-.278.132s-.146.149-.188.244c-.043.095-.062.198-.057.302.15 2.67 2.86 5 2.86 5-.547.452-1.002 1.006-1.34 1.63-.051.102-.074.216-.068.33.007.114.044.224.107.319.062.095.149.172.251.223.102.052.216.075.33.068 2.02-.2 4.18-1.63 7.7 1.25z" fill="#ff5000"/><path d="m225.81 363.7c-12.72-13.28-9.13-21.15-8.27-27s-13.18-8.21-26.18.34-13.17 19.71-7 26.63 6.34 12.55-3.08 20.25-40 23.32-50.58 33.93c-4 4-12.52 15.65-8.63 22.83s18.48 6.44 24.13 6.24c7.07-.26 7.28 3.95-2.43 9.45-8.37 4.75-24.42 9.51-32 21.14s-1.37 31 13 32.34 38.33-13.17 48.25-31.31 19.51-19.51 33.54-22.41 21.56-6.76 21.81-17.29-18.77-22.07-15.65-39.18 13.2-18.79 13.09-35.96z" fill="#ff5000"/><path d="m243.09 280.26c.718 0 1.3-.582 1.3-1.3s-.582-1.3-1.3-1.3-1.3.582-1.3 1.3.582 1.3 1.3 1.3z" fill="#ff5000"/><path d="m248.19 280.26c.718 0 1.3-.582 1.3-1.3s-.582-1.3-1.3-1.3-1.3.582-1.3 1.3.582 1.3 1.3 1.3z" fill="#9e1f63"/><path d="m253.3 280.26c.718 0 1.3-.582 1.3-1.3s-.582-1.3-1.3-1.3-1.3.582-1.3 1.3.582 1.3 1.3 1.3z" fill="#662d91"/><path d="m372.42 284.14h-134.65v3.68c41.28-2.43 76.17-1.35 98.84-1 10.75.18 24.37.07 35.84-.1z" fill="#135" opacity=".1"/><path d="m201.68 332.43c-3.669.977-7.154 2.544-10.32 4.64-13 8.56-13.17 19.71-7 26.63s6.34 12.55-3.08 20.25c-4.62 3.79-14.34 9.48-24.3 15.55 23.39-5.62 32.5-14.27 40.08-27.06s-7.58-24.63 4.64-40z" fill="#ff1900"/><path d="m212.67 399.84c-16.39 33.66 20.36 35.71.91 54.6 9.53-2.81 14.61-6.95 14.82-15.57.26-10.52-18.77-22.07-15.65-39.18z" fill="#ff1900"/><path d="m138.52 447c3.05.11 5.82 0 7.66-.07 7.07-.26 7.28 3.95-2.43 9.45-2.39 1.36-5.42 2.72-8.69 4.24 41.47-7.95 32.26-20.1 3.46-13.62z" fill="#ff1900"/><path d="m164.96 489.62c-31.92 26.81-50.85 4.17-53.56-11.41-6.88 11.69-.7 30.33 13.4 31.67 11.29 1.12 28.49-7.67 40.16-20.26z" fill="#ff1900"/><path d="m228.42 509.26c-5.94 28.16 10.47 48.28 12.06 72.36h6.94c-3.64-31.04-17.75-42.07-19-72.36z" fill="#135" opacity=".2"/><path d="m450.81 215.5c.89.7 1.8 1.39 2.72 2.08l12.71-3.2v.08l9.32-9.31-28.58 7.49c1.28.907 2.557 1.86 3.83 2.86z" fill="#ff5000"/></g></svg>