<svg width="720" height="624" viewBox="0 0 720 624" fill="none" xmlns="http://www.w3.org/2000/svg">
<g clip-path="url(#clip0)">
<rect width="720" height="624" fill="white"/>
<path d="M161.36 165C195.03 196.72 283.6 222 238.92 275.71L370.58 275C370.58 275 334.25 245.32 351.73 215.53C369.21 185.74 413.25 186.39 450.81 215.53C488.37 244.67 538.87 265.39 604.27 181.21C635.27 141.31 677.59 125.46 720.42 124.54V0H174.95C174.034 14.8089 169.112 29.0908 160.71 41.32C121.21 100.24 127.69 133.27 161.36 165Z" fill="#113355"/>
<path d="M312.23 210.15H310.79V208.7H309.79V210.15H308.35V211.15H309.79V212.59H310.79V211.15H312.23V210.15Z" fill="white"/>
<path d="M216.09 157.93H214.64V156.48H213.64V157.93H212.2V158.93H213.64V160.37H214.64V158.93H216.09V157.93Z" fill="white"/>
<path d="M412.06 130.82H410.62V129.38H409.62V130.82H408.17V131.82H409.62V133.27H410.62V131.82H412.06V130.82Z" fill="white"/>
<path d="M543.08 200.77H541.64V199.32H540.64V200.77H539.19V201.77H540.64V203.21H541.64V201.77H543.08V200.77Z" fill="white"/>
<path d="M559.59 55.06H558.15V53.62H557.15V55.06H555.7V56.06H557.15V57.51H558.15V56.06H559.59V55.06Z" fill="white"/>
<path d="M711.88 78.01H710.43V76.57H709.43V78.01H707.99V79.01H709.43V80.45H710.43V79.01H711.88V78.01Z" fill="white"/>
<path d="M200.54 33.55C200.899 33.55 201.19 33.259 201.19 32.9C201.19 32.541 200.899 32.25 200.54 32.25C200.181 32.25 199.89 32.541 199.89 32.9C199.89 33.259 200.181 33.55 200.54 33.55Z" fill="white"/>
<path d="M159.74 99.27C160.099 99.27 160.39 98.979 160.39 98.62C160.39 98.261 160.099 97.97 159.74 97.97C159.381 97.97 159.09 98.261 159.09 98.62C159.09 98.979 159.381 99.27 159.74 99.27Z" fill="white"/>
<path d="M289.57 156.58C289.929 156.58 290.22 156.289 290.22 155.93C290.22 155.571 289.929 155.28 289.57 155.28C289.211 155.28 288.92 155.571 288.92 155.93C288.92 156.289 289.211 156.58 289.57 156.58Z" fill="white"/>
<path d="M272.74 229.75C273.099 229.75 273.39 229.459 273.39 229.1C273.39 228.741 273.099 228.45 272.74 228.45C272.381 228.45 272.09 228.741 272.09 229.1C272.09 229.459 272.381 229.75 272.74 229.75Z" fill="white"/>
<path d="M338.46 198.02C338.819 198.02 339.11 197.729 339.11 197.37C339.11 197.011 338.819 196.72 338.46 196.72C338.101 196.72 337.81 197.011 337.81 197.37C337.81 197.729 338.101 198.02 338.46 198.02Z" fill="white"/>
<path d="M403.86 176.65C404.219 176.65 404.51 176.359 404.51 176C404.51 175.641 404.219 175.35 403.86 175.35C403.501 175.35 403.21 175.641 403.21 176C403.21 176.359 403.501 176.65 403.86 176.65Z" fill="white"/>
<path d="M378.61 127.44C378.969 127.44 379.26 127.149 379.26 126.79C379.26 126.431 378.969 126.14 378.61 126.14C378.251 126.14 377.96 126.431 377.96 126.79C377.96 127.149 378.251 127.44 378.61 127.44Z" fill="white"/>
<path d="M357.89 56.86C358.249 56.86 358.54 56.569 358.54 56.21C358.54 55.851 358.249 55.56 357.89 55.56C357.531 55.56 357.24 55.851 357.24 56.21C357.24 56.569 357.531 56.86 357.89 56.86Z" fill="white"/>
<path d="M478.65 165C479.009 165 479.3 164.709 479.3 164.35C479.3 163.991 479.009 163.7 478.65 163.7C478.291 163.7 478 163.991 478 164.35C478 164.709 478.291 165 478.65 165Z" fill="white"/>
<path d="M534.34 141.69C534.699 141.69 534.99 141.399 534.99 141.04C534.99 140.681 534.699 140.39 534.34 140.39C533.981 140.39 533.69 140.681 533.69 141.04C533.69 141.399 533.981 141.69 534.34 141.69Z" fill="white"/>
<path d="M526.89 220.62C527.249 220.62 527.54 220.329 527.54 219.97C527.54 219.611 527.249 219.32 526.89 219.32C526.531 219.32 526.24 219.611 526.24 219.97C526.24 220.329 526.531 220.62 526.89 220.62Z" fill="white"/>
<path d="M604.27 104.13C604.629 104.13 604.92 103.839 604.92 103.48C604.92 103.121 604.629 102.83 604.27 102.83C603.911 102.83 603.62 103.121 603.62 103.48C603.62 103.839 603.911 104.13 604.27 104.13Z" fill="white"/>
<path d="M613.01 69.46C613.369 69.46 613.66 69.169 613.66 68.81C613.66 68.451 613.369 68.16 613.01 68.16C612.651 68.16 612.36 68.451 612.36 68.81C612.36 69.169 612.651 69.46 613.01 69.46Z" fill="white"/>
<path d="M539.84 70.76C540.199 70.76 540.49 70.469 540.49 70.11C540.49 69.751 540.199 69.46 539.84 69.46C539.481 69.46 539.19 69.751 539.19 70.11C539.19 70.469 539.481 70.76 539.84 70.76Z" fill="white"/>
<path d="M672.33 90.5C672.689 90.5 672.98 90.209 672.98 89.85C672.98 89.491 672.689 89.2 672.33 89.2C671.971 89.2 671.68 89.491 671.68 89.85C671.68 90.209 671.971 90.5 672.33 90.5Z" fill="white"/>
<path d="M710.14 18.66C710.499 18.66 710.79 18.369 710.79 18.01C710.79 17.651 710.499 17.36 710.14 17.36C709.781 17.36 709.49 17.651 709.49 18.01C709.49 18.369 709.781 18.66 710.14 18.66Z" fill="white"/>
<path d="M541.78 2.46998C542.139 2.46998 542.43 2.17897 542.43 1.81998C542.43 1.461 542.139 1.16998 541.78 1.16998C541.421 1.16998 541.13 1.461 541.13 1.81998C541.13 2.17897 541.421 2.46998 541.78 2.46998Z" fill="white"/>
<path d="M320.65 23.19H299.93V0H293.42V23.19H272.74V0H266.26V23.19H245.54V0H237.77V29C237.77 29.6869 238.043 30.3457 238.529 30.8314C239.014 31.3171 239.673 31.59 240.36 31.59H325.83C326.517 31.59 327.176 31.3171 327.661 30.8314C328.147 30.3457 328.42 29.6869 328.42 29V0H320.65V23.19Z" fill="#34516F"/>
<path d="M661.25 0V18H606.86V0H591.32V43.26C591.32 43.9469 591.593 44.6057 592.079 45.0914C592.564 45.5771 593.223 45.85 593.91 45.85H674.2C674.54 45.85 674.877 45.783 675.191 45.6528C675.505 45.5227 675.791 45.3319 676.031 45.0914C676.272 44.8509 676.463 44.5654 676.593 44.2511C676.723 43.9369 676.79 43.6001 676.79 43.26V0H661.25ZM658.66 38.73H609.42C608.733 38.73 608.074 38.4571 607.589 37.9714C607.103 37.4857 606.83 36.8269 606.83 36.14C606.83 35.4531 607.103 34.7943 607.589 34.3086C608.074 33.8229 608.733 33.55 609.42 33.55H658.63C659.317 33.55 659.976 33.8229 660.461 34.3086C660.947 34.7943 661.22 35.4531 661.22 36.14C661.22 36.8269 660.947 37.4857 660.461 37.9714C659.976 38.4571 659.317 38.73 658.63 38.73H658.66ZM658.66 28.37H609.42C608.733 28.37 608.074 28.0971 607.589 27.6114C607.103 27.1257 606.83 26.4669 606.83 25.78C606.83 25.0931 607.103 24.4343 607.589 23.9486C608.074 23.4629 608.733 23.19 609.42 23.19H658.63C659.317 23.19 659.976 23.4629 660.461 23.9486C660.947 24.4343 661.22 25.0931 661.22 25.78C661.22 26.4669 660.947 27.1257 660.461 27.6114C659.976 28.0971 659.317 28.37 658.63 28.37H658.66Z" fill="#34516F"/>
<path d="M257.84 205.14C267.494 205.14 275.32 197.314 275.32 187.66C275.32 178.006 267.494 170.18 257.84 170.18C248.186 170.18 240.36 178.006 240.36 187.66C240.36 197.314 248.186 205.14 257.84 205.14Z" fill="white"/>
<path d="M257.89 178L248.05 194.83H267.64L257.89 178ZM253.89 191.53L257.89 184.81L261.89 191.5L253.89 191.53Z" fill="#FF5000"/>
<path d="M297.63 239.11L283.76 252.83L302.69 257.83L297.63 239.11ZM290.21 251.11L295.84 245.66L297.99 253.16L290.21 251.11Z" fill="#34516F"/>
<path d="M462 127.44L456.85 146.25L475.76 141.16L462 127.44ZM461.59 141.56L463.74 134.03L469.35 139.44L461.59 141.56Z" fill="white"/>
<path d="M316.42 68.17L302.54 81.88L321.42 86.93L316.42 68.17ZM309.01 80.17L314.64 74.72L316.79 82.22L309.01 80.17Z" fill="white"/>
<path d="M181.42 67.87V131.32C181.42 132.007 181.693 132.666 182.179 133.151C182.664 133.637 183.323 133.91 184.01 133.91H269.49C270.177 133.91 270.836 133.637 271.321 133.151C271.807 132.666 272.08 132.007 272.08 131.32V67.87H181.42Z" fill="white"/>
<path d="M272.09 62.69C272.09 62.0031 271.817 61.3443 271.331 60.8586C270.846 60.3729 270.187 60.1 269.5 60.1H184.02C183.679 60.0987 183.341 60.1647 183.026 60.2943C182.71 60.4238 182.424 60.6144 182.182 60.855C181.941 61.0957 181.749 61.3816 181.618 61.6965C181.487 62.0114 181.42 62.349 181.42 62.69V67.87H272.08L272.09 62.69Z" fill="#662D91"/>
<path d="M235.83 76.93H217.7V95.06H235.83V76.93Z" fill="#9E1F63"/>
<path d="M260.43 76.93H242.3V95.06H260.43V76.93Z" fill="#662D91"/>
<path d="M211.22 76.93H193.09V95.06H211.22V76.93Z" fill="#FF5000"/>
<path d="M258.49 100.89H195.03C193.959 100.89 193.09 101.759 193.09 102.83V102.84C193.09 103.911 193.959 104.78 195.03 104.78H258.49C259.561 104.78 260.43 103.911 260.43 102.84V102.83C260.43 101.759 259.561 100.89 258.49 100.89Z" fill="#E7EBEE"/>
<path d="M258.49 108.66H195.03C193.959 108.66 193.09 109.529 193.09 110.6V110.61C193.09 111.681 193.959 112.55 195.03 112.55H258.49C259.561 112.55 260.43 111.681 260.43 110.61V110.6C260.43 109.529 259.561 108.66 258.49 108.66Z" fill="#E7EBEE"/>
<path d="M258.49 116.43H195.03C193.959 116.43 193.09 117.299 193.09 118.37V118.38C193.09 119.451 193.959 120.32 195.03 120.32H258.49C259.561 120.32 260.43 119.451 260.43 118.38V118.37C260.43 117.299 259.561 116.43 258.49 116.43Z" fill="#E7EBEE"/>
<path d="M243.6 124.2H209.92C208.849 124.2 207.98 125.069 207.98 126.14V126.15C207.98 127.221 208.849 128.09 209.92 128.09H243.6C244.671 128.09 245.54 127.221 245.54 126.15V126.14C245.54 125.069 244.671 124.2 243.6 124.2Z" fill="#E7EBEE"/>
<path d="M341.37 175.36C353.531 175.36 363.39 165.501 363.39 153.34C363.39 141.179 353.531 131.32 341.37 131.32C329.209 131.32 319.35 141.179 319.35 153.34C319.35 165.501 329.209 175.36 341.37 175.36Z" fill="white"/>
<path d="M341.042 152.086C343.352 151.467 344.472 148.159 343.544 144.696C342.617 141.234 339.992 138.929 337.682 139.548C335.372 140.167 334.252 143.476 335.179 146.938C336.107 150.4 338.732 152.705 341.042 152.086Z" fill="#9E1F63"/>
<path d="M342.05 155.85C339.612 156.502 337.45 157.926 335.889 159.909C334.328 161.892 333.451 164.327 333.39 166.85C333.388 167.248 333.479 167.64 333.654 167.998C333.829 168.355 334.084 168.666 334.4 168.909C334.716 169.151 335.083 169.316 335.473 169.393C335.864 169.47 336.266 169.455 336.65 169.35L353.49 164.84C353.875 164.738 354.231 164.549 354.531 164.287C354.831 164.025 355.066 163.698 355.219 163.33C355.372 162.963 355.438 162.565 355.412 162.168C355.386 161.771 355.269 161.385 355.07 161.04C353.752 158.884 351.771 157.213 349.424 156.277C347.077 155.342 344.49 155.192 342.05 155.85Z" fill="#9E1F63"/>
<path d="M515.56 13.47H386.05V97.65H515.56V13.47Z" fill="white"/>
<path d="M484.47 32.25H417.13V71.75H484.47V32.25Z" fill="#662D91"/>
<path d="M481.88 76.93H419.72C418.29 76.93 417.13 78.0896 417.13 79.52C417.13 80.9504 418.29 82.11 419.72 82.11H481.88C483.31 82.11 484.47 80.9504 484.47 79.52C484.47 78.0896 483.31 76.93 481.88 76.93Z" fill="#E7EBEE"/>
<path d="M481.88 86.65H419.72C418.29 86.65 417.13 87.8096 417.13 89.24C417.13 90.6704 418.29 91.83 419.72 91.83H481.88C483.31 91.83 484.47 90.6704 484.47 89.24C484.47 87.8096 483.31 86.65 481.88 86.65Z" fill="#E7EBEE"/>
<path d="M515.56 13.47H386.05V23.83H515.56V13.47Z" fill="#FF5000"/>
<path d="M478 54.06L466.27 39.55L449.16 60.72L438.75 47.84L423.61 66.57H478V54.06Z" fill="white"/>
<path opacity="0.1" d="M449.16 60.72L447.21 63.13L445.37 56.04L449.16 60.72Z" fill="#662D91"/>
<path d="M391.23 19.95C391.948 19.95 392.53 19.3679 392.53 18.65C392.53 17.932 391.948 17.35 391.23 17.35C390.512 17.35 389.93 17.932 389.93 18.65C389.93 19.3679 390.512 19.95 391.23 19.95Z" fill="white"/>
<path d="M396.34 19.95C397.058 19.95 397.64 19.3679 397.64 18.65C397.64 17.932 397.058 17.35 396.34 17.35C395.622 17.35 395.04 17.932 395.04 18.65C395.04 19.3679 395.622 19.95 396.34 19.95Z" fill="white"/>
<path d="M401.44 19.95C402.158 19.95 402.74 19.3679 402.74 18.65C402.74 17.932 402.158 17.35 401.44 17.35C400.722 17.35 400.14 17.932 400.14 18.65C400.14 19.3679 400.722 19.95 401.44 19.95Z" fill="white"/>
<path d="M560.88 178C560.88 178.34 560.947 178.677 561.077 178.991C561.207 179.305 561.398 179.591 561.639 179.831C561.879 180.072 562.165 180.263 562.479 180.393C562.793 180.523 563.13 180.59 563.47 180.59H604.79C616.777 165.107 631.805 152.24 648.95 142.78V130H560.88V178Z" fill="white"/>
<path d="M646.36 122.26H563.47C562.783 122.26 562.124 122.533 561.639 123.019C561.153 123.504 560.88 124.163 560.88 124.85V130H648.95V124.82C648.942 124.138 648.666 123.487 648.181 123.008C647.696 122.529 647.042 122.26 646.36 122.26V122.26Z" fill="#662D91"/>
<path d="M636.65 145.57H602.97C602.283 145.57 601.624 145.843 601.139 146.329C600.653 146.814 600.38 147.473 600.38 148.16C600.38 148.847 600.653 149.506 601.139 149.991C601.624 150.477 602.283 150.75 602.97 150.75H636.05C637.05 150.02 638.14 149.31 639.19 148.61C639.221 148.462 639.238 148.311 639.24 148.16C639.24 147.82 639.173 147.483 639.043 147.169C638.913 146.855 638.722 146.569 638.481 146.329C638.241 146.088 637.955 145.897 637.641 145.767C637.327 145.637 636.99 145.57 636.65 145.57V145.57Z" fill="#E7EBEE"/>
<path d="M600.42 158.52C600.42 158.86 600.487 159.197 600.617 159.511C600.747 159.825 600.938 160.111 601.179 160.351C601.419 160.592 601.705 160.783 602.019 160.913C602.333 161.043 602.67 161.11 603.01 161.11H623.01C625.01 159.31 627.057 157.583 629.15 155.93H602.97C602.29 155.94 601.642 156.218 601.164 156.703C600.687 157.187 600.42 157.84 600.42 158.52Z" fill="#E7EBEE"/>
<path d="M577.07 166.29C576.383 166.29 575.724 166.563 575.239 167.049C574.753 167.534 574.48 168.193 574.48 168.88C574.48 169.567 574.753 170.226 575.239 170.711C575.724 171.197 576.383 171.47 577.07 171.47H612.49C614.123 169.69 615.79 167.963 617.49 166.29H577.07Z" fill="#E7EBEE"/>
<path d="M593.91 136.5H574.48V161.11H593.91V136.5Z" fill="#FF5000"/>
<path d="M584.2 148.16C585.393 148.16 586.36 146.709 586.36 144.92C586.36 143.131 585.393 141.68 584.2 141.68C583.007 141.68 582.04 143.131 582.04 144.92C582.04 146.709 583.007 148.16 584.2 148.16Z" fill="white"/>
<path d="M584.2 150.1C582.654 150.1 581.171 150.714 580.078 151.808C578.984 152.901 578.37 154.384 578.37 155.93H590.02C590.02 154.385 589.407 152.904 588.316 151.811C587.225 150.718 585.744 150.103 584.2 150.1V150.1Z" fill="white"/>
<path d="M440.21 194.55C437.403 197.364 435.135 200.668 433.52 204.3C439.592 207.533 445.377 211.28 450.81 215.5C462.26 224.39 474.93 232.5 488.81 237.07C493.811 230.542 496.141 222.356 495.325 214.173C494.51 205.99 490.61 198.425 484.419 193.012C478.228 187.6 470.209 184.747 461.991 185.033C453.772 185.318 445.971 188.721 440.17 194.55H440.21Z" fill="white"/>
<path d="M463.68 224.69C465.56 225.9 467.47 227.08 469.4 228.2L475.54 205.2L466.22 214.51L463.68 224.69Z" fill="#9E1F63"/>
<path opacity="0.2" d="M715.82 4.6V120.06C668.39 122.22 628.64 142.31 600.64 178.36C584.58 199.03 568.52 214.36 552.9 223.92C539.42 232.2 525.77 236.39 512.42 236.39C500.75 236.39 481.96 233.85 453.63 211.87C434.42 197 413.08 188.8 393.42 188.8C373.18 188.8 356.96 197.46 347.74 213.17C339.67 226.92 340.68 242.7 350.66 258.83C353.229 262.942 356.15 266.823 359.39 270.43L248.02 271.06C254.43 261.06 256.91 251.25 255.38 241.82C251.59 218.48 224.81 201.87 198.92 185.82C185.67 177.6 173.15 169.82 164.49 161.67C147.06 145.25 138.94 130.29 138.17 113.17C137.31 94.28 145.92 71.62 164.51 43.9C172.521 32.1878 177.553 18.6976 179.17 4.6H715.82ZM720.42 0H174.95C174.034 14.8089 169.112 29.0908 160.71 41.32C121.21 100.24 127.71 133.32 161.36 165C195.01 196.68 283.6 222 238.92 275.71L370.58 275C370.58 275 334.25 245.32 351.73 215.53C360.43 200.72 375.73 193.44 393.45 193.44C411.45 193.44 431.92 200.88 450.81 215.53C468.42 229.17 488.9 241 512.42 241C539.04 241 569.55 225.88 604.27 181.19C635.27 141.29 677.59 125.44 720.42 124.52V0Z" fill="#113355"/>
<path d="M321.3 254.52C321.659 254.52 321.95 254.229 321.95 253.87C321.95 253.511 321.659 253.22 321.3 253.22C320.941 253.22 320.65 253.511 320.65 253.87C320.65 254.229 320.941 254.52 321.3 254.52Z" fill="white"/>
<path d="M372.42 279C372.421 278.319 372.288 277.645 372.028 277.016C371.769 276.387 371.387 275.816 370.906 275.334C370.424 274.853 369.853 274.471 369.224 274.212C368.595 273.952 367.921 273.819 367.24 273.82H242.95C241.576 273.82 240.259 274.366 239.287 275.337C238.316 276.309 237.77 277.626 237.77 279V284.18H372.42V279Z" fill="#8899AA"/>
<path d="M237.77 284.14V360.55C237.77 361.924 238.316 363.241 239.287 364.213C240.259 365.184 241.576 365.73 242.95 365.73H367.27C367.951 365.731 368.625 365.598 369.254 365.338C369.883 365.079 370.454 364.697 370.936 364.216C371.417 363.734 371.799 363.163 372.058 362.534C372.318 361.905 372.451 361.231 372.45 360.55V284.14H237.77Z" fill="#E7EBEE"/>
<path opacity="0.2" d="M305.11 352.78C319.414 352.78 331.01 341.184 331.01 326.88C331.01 312.576 319.414 300.98 305.11 300.98C290.806 300.98 279.21 312.576 279.21 326.88C279.21 341.184 290.806 352.78 305.11 352.78Z" fill="#8899AA"/>
<path d="M305.11 350.83C319.414 350.83 331.01 339.234 331.01 324.93C331.01 310.626 319.414 299.03 305.11 299.03C290.806 299.03 279.21 310.626 279.21 324.93C279.21 339.234 290.806 350.83 305.11 350.83Z" fill="white"/>
<path opacity="0.3" d="M305.11 302.53C309.543 302.53 313.876 303.845 317.561 306.307C321.247 308.77 324.119 312.271 325.815 316.366C327.511 320.462 327.954 324.968 327.089 329.316C326.223 333.663 324.088 337.656 320.953 340.79C317.818 343.923 313.824 346.057 309.476 346.921C305.128 347.784 300.622 347.339 296.527 345.641C292.432 343.944 288.933 341.07 286.472 337.383C284.011 333.696 282.698 329.363 282.7 324.93C282.708 318.99 285.072 313.295 289.273 309.096C293.474 304.897 299.17 302.535 305.11 302.53V302.53ZM305.11 301.38C300.45 301.38 295.894 302.762 292.02 305.351C288.145 307.941 285.125 311.621 283.343 315.926C281.56 320.232 281.094 324.97 282.003 329.54C282.913 334.11 285.158 338.308 288.454 341.603C291.75 344.897 295.949 347.141 300.52 348.049C305.091 348.956 309.828 348.488 314.133 346.704C318.438 344.919 322.117 341.898 324.704 338.022C327.292 334.146 328.672 329.59 328.67 324.93C328.67 321.837 328.061 318.773 326.876 315.915C325.692 313.058 323.957 310.461 321.769 308.274C319.581 306.087 316.984 304.353 314.125 303.17C311.267 301.987 308.204 301.379 305.11 301.38Z" fill="#E7EBEE"/>
<path d="M310.79 329.48L318.77 334.05L305.18 310.61V320.16L310.79 329.48Z" fill="#9E1F63"/>
<path d="M305.15 320.11L305.18 320.16V310.61L291.45 334.08L299.54 329.48L305.15 320.11Z" fill="#FF5000"/>
<path d="M310.79 329.48H299.54L291.45 334.08L318.77 334.05L310.79 329.48Z" fill="#662D91"/>
<path d="M313.74 542.89C313.74 542.89 317.46 545.52 320.84 545.78C321.004 545.793 321.156 545.869 321.264 545.992C321.372 546.115 321.428 546.276 321.42 546.44C321.28 550.31 319.77 557.44 311.32 555.7C302.42 553.82 313.74 542.89 313.74 542.89Z" fill="#8899AA"/>
<path opacity="0.3" d="M314.71 543.52C314.11 543.15 313.71 542.89 313.71 542.89C313.71 542.89 302.42 553.82 311.32 555.7C312.914 556.104 314.586 556.083 316.17 555.64C314.29 550.94 311.52 550.67 314.71 543.52Z" fill="#113355"/>
<path d="M319.97 544.69C319.97 544.69 318.97 547.55 322.7 547.29L322.99 545.22L319.97 544.69Z" fill="#113355"/>
<path d="M301 541.46L298.47 535.13C298.424 535.019 298.347 534.922 298.249 534.852C298.151 534.782 298.035 534.74 297.915 534.732C297.794 534.723 297.674 534.749 297.567 534.805C297.46 534.861 297.371 534.946 297.31 535.05C296.492 536.479 296.019 538.079 295.927 539.722C295.835 541.366 296.127 543.009 296.78 544.52C300.42 543.13 301 541.46 301 541.46Z" fill="#34516F"/>
<path opacity="0.1" d="M89.79 598.14C97.56 584.26 150.66 603.93 206.99 598.14C263.32 592.35 355.28 583.14 353.33 608.55C351.38 633.96 265.92 609.71 199.22 608.55C132.52 607.39 82.02 612 89.79 598.14Z" fill="#1652F0"/>
<path d="M207.31 509.26L177.07 578.66C177.07 578.66 173.47 577.66 167.77 575.66C180.42 541.66 178.31 520.76 189.22 505.66C186.37 485.94 183.02 463.19 186.87 446.32C190.72 429.45 221.87 444.83 221.87 444.83C221.87 444.83 213.22 496.76 207.31 509.26Z" fill="#34516F"/>
<path d="M207.31 509.26L177.07 578.66C177.07 578.66 173.47 577.66 167.77 575.66C180.42 541.66 178.31 520.76 189.22 505.66C186.37 485.94 183.02 463.19 186.87 446.32C190.72 429.45 221.87 444.83 221.87 444.83C221.87 444.83 213.22 496.76 207.31 509.26Z" fill="#34516F"/>
<path d="M235.02 425.29L249.56 581.62H240.47C238.88 557.54 222.47 537.42 228.41 509.26C220.94 494.26 189.89 456.75 196.18 433.46C202.47 410.17 219.8 416.46 219.8 416.46L235.02 425.29Z" fill="#8899AA"/>
<path d="M244.53 581.67L237.68 509.39C237.31 505.39 236.79 501.32 236.13 497.33L224.02 424.69L225.02 424.53L237.13 497.17C237.8 501.17 238.33 505.26 238.7 509.3L245.54 581.57L244.53 581.67Z" fill="white"/>
<path opacity="0.3" d="M169.49 576.28L169.72 576.35L170.51 576.62H170.62L171.44 576.89C181.95 561.58 180.59 532.26 194.15 507.37C197.15 500.58 195.94 483.63 195.43 470.57C195.384 469.329 195.715 468.103 196.379 467.053C197.043 466.004 198.009 465.18 199.15 464.69C203.443 462.998 207.826 461.546 212.28 460.34C227.11 455.94 234.86 451.12 234.18 439.78C233.903 437.255 232.98 434.844 231.5 432.78C232.898 432.894 234.305 432.84 235.69 432.62L235.01 425.24L219.79 416.38C219.79 416.38 202.46 410.12 196.17 433.38C195.722 435.077 195.457 436.817 195.38 438.57C191.23 439.26 187.95 441.45 186.86 446.23C183.01 463.1 186.36 485.85 189.21 505.57C178.3 520.7 180.41 541.62 167.76 575.57L168.76 575.92L169.49 576.28Z" fill="#113355"/>
<path d="M217.606 356.205C222.098 355.001 224.464 349.264 222.89 343.39C221.316 337.517 216.399 333.731 211.907 334.935C207.415 336.138 205.05 341.876 206.624 347.749C208.197 353.622 213.114 357.408 217.606 356.205Z" fill="#56B4FC"/>
<path d="M246.88 376.94L255.56 383.13L280.21 361.2L281.7 352.27C281.771 351.842 281.999 351.455 282.339 351.185C282.679 350.916 283.107 350.782 283.54 350.81L286.8 351.02L295.54 341.31C295.815 341.004 296.19 340.808 296.598 340.756C297.006 340.705 297.418 340.802 297.76 341.03C297.95 341.157 298.113 341.32 298.239 341.511C298.365 341.701 298.452 341.915 298.494 342.14C298.536 342.365 298.532 342.595 298.484 342.819C298.435 343.042 298.342 343.253 298.21 343.44L292.42 351.63L294.85 358.63C294.995 359.043 295.02 359.488 294.923 359.914C294.825 360.341 294.61 360.731 294.3 361.04L293.2 362.14C291.54 363.81 290.54 365.49 288.06 366.32L286.01 367C286.01 367 266.14 394.56 258.72 396.27C251.3 397.98 242.42 392.27 242.42 392.27L237.42 379.86L246.88 376.94Z" fill="#56B4FC"/>
<path opacity="0.3" d="M217.61 356.2C219.059 355.799 220.337 354.935 221.25 353.74C216.53 346.54 217.95 341 218.07 336.74C218.08 336.563 218.08 336.387 218.07 336.21C217.202 335.566 216.203 335.12 215.144 334.904C214.085 334.688 212.991 334.707 211.94 334.96C207.45 336.16 205.09 341.9 206.66 347.77C208.23 353.64 213.12 357.41 217.61 356.2Z" fill="#1652F0"/>
<path opacity="0.3" d="M286.04 367C275.14 373.33 270.6 389.12 257.33 392.39C250.72 394.01 246.33 390.28 238.77 383.18L242.45 392.28C242.45 392.28 251.33 397.97 258.75 396.28C266.17 394.59 286.04 367 286.04 367Z" fill="#1652F0"/>
<path d="M237.51 379.86L237.43 379.89L238.77 383.2L237.51 379.86Z" fill="#1652F0"/>
<path d="M217.68 361.76C226.35 361.76 241.74 373.27 247.46 375.76C244.17 381.63 246.54 388.2 241.05 394.02C236.38 392.73 233.74 391.38 231.91 389.96C232.38 395.72 227.98 398.15 229.27 405.33C230.56 412.51 238.89 426.54 238.89 426.54C238.89 426.54 236.38 431.89 214.3 424.1C192.22 416.31 200.75 362.79 200.75 362.79L217.68 361.76Z" fill="#113355"/>
<path opacity="0.15" d="M209.42 387C213.462 391.023 218.05 394.457 223.05 397.2C225.4 398.54 227.44 399.57 229.25 400.4C229.35 399.92 229.46 399.47 229.59 399.03C227.87 398.24 225.95 397.26 223.75 396.03C218.856 393.331 214.369 389.955 210.42 386C207.094 382.674 203.381 379.76 199.36 377.32C199.36 377.85 199.36 378.37 199.29 378.91C202.959 381.218 206.357 383.932 209.42 387V387Z" fill="white"/>
<path opacity="0.15" d="M224.99 393.94C226.99 395.09 228.8 396.02 230.42 396.78C230.6 396.35 230.77 395.92 230.94 395.49C229.37 394.75 227.64 393.86 225.69 392.74C220.785 390.053 216.283 386.686 212.32 382.74C208.54 378.96 204.264 375.71 199.61 373.08C199.61 373.58 199.53 374.08 199.5 374.62C203.831 377.134 207.818 380.2 211.36 383.74C215.402 387.763 219.99 391.197 224.99 393.94V393.94Z" fill="white"/>
<path opacity="0.15" d="M217.98 405.94C213.072 403.256 208.571 399.89 204.61 395.94C202.912 394.274 201.129 392.695 199.27 391.21C199.27 391.84 199.34 392.46 199.38 393.08C201.03 394.44 202.38 395.7 203.65 396.94C211.659 404.64 221.403 410.299 232.06 413.44C231.81 412.88 231.58 412.33 231.35 411.79C226.667 410.405 222.175 408.44 217.98 405.94V405.94Z" fill="white"/>
<path opacity="0.15" d="M229.57 419C224.146 417.584 218.949 415.413 214.13 412.55C209.221 409.869 204.719 406.502 200.76 402.55L200.47 402.28C200.62 403.08 200.77 403.86 200.94 404.64C204.686 408.204 208.881 411.264 213.42 413.74C218.332 416.659 223.631 418.871 229.16 420.31C231.749 421.001 234.294 421.849 236.78 422.85C236.46 422.27 236.11 421.64 235.78 420.96C233.47 420.09 231.5 419.53 229.57 419Z" fill="white"/>
<path opacity="0.15" d="M231.5 415.69C226.074 414.273 220.873 412.101 216.05 409.24C211.144 406.554 206.643 403.187 202.68 399.24C201.73 398.33 200.76 397.4 199.68 396.44C199.76 397.14 199.83 397.83 199.92 398.52C200.55 399.1 201.15 399.68 201.74 400.24C209.988 408.171 220.077 413.93 231.1 417C232.1 417.29 233.1 417.57 234.19 417.91L233.35 416.21L231.5 415.69Z" fill="white"/>
<path opacity="0.15" d="M225.72 425.59C220.291 424.181 215.089 422.009 210.27 419.14C208.27 417.98 206.51 416.9 205.03 415.89C205.618 416.94 206.287 417.943 207.03 418.89C207.81 419.37 208.65 419.89 209.55 420.38C214.466 423.297 219.768 425.509 225.3 426.95C226.53 427.3 227.77 427.65 229.1 428.09C230.659 428.32 232.235 428.413 233.81 428.37C231.178 427.264 228.476 426.336 225.72 425.59Z" fill="white"/>
<path opacity="0.15" d="M207.51 390.34C211.547 394.369 216.136 397.803 221.14 400.54C223.717 402.046 226.389 403.383 229.14 404.54C229.08 404 229.03 403.48 229.02 402.99C226.558 401.91 224.158 400.695 221.83 399.35C216.921 396.669 212.419 393.302 208.46 389.35C205.622 386.524 202.506 383.991 199.16 381.79C199.16 382.343 199.16 382.893 199.16 383.44C202.151 385.477 204.946 387.787 207.51 390.34V390.34Z" fill="white"/>
<path opacity="0.15" d="M212.2 415.84C208.577 413.859 205.166 411.514 202.02 408.84C202.29 409.7 202.58 410.55 202.89 411.36C205.605 413.494 208.484 415.41 211.5 417.09C216.416 420.007 221.718 422.219 227.25 423.66C230.883 424.605 234.416 425.897 237.8 427.52C238.243 427.328 238.622 427.012 238.89 426.61L238.81 426.47C235.235 424.721 231.493 423.338 227.64 422.34C222.214 420.908 217.016 418.72 212.2 415.84V415.84Z" fill="white"/>
<path opacity="0.15" d="M203.77 363.84C208.679 366.521 213.181 369.888 217.14 373.84C224.702 381.116 233.813 386.586 243.79 389.84C243.97 389.41 244.13 388.98 244.27 388.54C234.477 385.356 225.531 379.999 218.1 372.87C214.066 368.838 209.476 365.404 204.47 362.67L204.38 362.62L201.81 362.78C202.42 363.09 203.09 363.44 203.77 363.84Z" fill="white"/>
<path opacity="0.15" d="M201.85 367.14C206.755 369.824 211.253 373.191 215.21 377.14C222.775 384.407 231.881 389.876 241.85 393.14C242.155 392.76 242.439 392.362 242.7 391.95C238.093 390.571 233.673 388.63 229.54 386.17C224.637 383.484 220.139 380.117 216.18 376.17C212.141 372.144 207.552 368.71 202.55 365.97L200.47 364.82C200.41 365.25 200.35 365.74 200.28 366.3C200.79 366.54 201.31 366.83 201.85 367.14Z" fill="white"/>
<path opacity="0.15" d="M232.7 380.74C236.537 383.004 240.607 384.848 244.84 386.24C244.93 385.78 245.02 385.32 245.09 384.86C241.022 383.507 237.109 381.724 233.42 379.54C228.515 376.853 224.013 373.487 220.05 369.54C217.302 366.791 214.287 364.322 211.05 362.17L208.71 362.32C212.48 364.649 215.966 367.407 219.1 370.54C223.13 374.563 227.709 377.997 232.7 380.74V380.74Z" fill="white"/>
<path opacity="0.15" d="M205.58 393.64C209.617 397.669 214.206 401.103 219.21 403.84C222.721 405.913 226.425 407.641 230.27 409C230.07 408.43 229.9 407.88 229.74 407.35C226.337 406.068 223.048 404.499 219.91 402.66C215.002 399.976 210.501 396.61 206.54 392.66C204.24 390.377 201.763 388.28 199.13 386.39V388.13C201.402 389.819 203.557 391.66 205.58 393.64V393.64Z" fill="white"/>
<path opacity="0.15" d="M199.92 370.44C204.828 373.124 209.329 376.49 213.29 380.44C217.33 384.466 221.918 387.9 226.92 390.64C228.67 391.64 230.23 392.46 231.67 393.16C231.779 392.686 231.856 392.205 231.9 391.72C230.59 391.08 229.18 390.33 227.62 389.44C222.713 386.756 218.211 383.389 214.25 379.44C210.211 375.414 205.622 371.98 200.62 369.24L199.99 368.89C199.943 369.37 199.893 369.87 199.84 370.39L199.92 370.44Z" fill="white"/>
<path opacity="0.15" d="M221 367.24C225.04 371.266 229.628 374.7 234.63 377.44C238.061 379.46 241.673 381.154 245.42 382.5C245.49 382.03 245.57 381.57 245.65 381.11C242.058 379.807 238.594 378.177 235.3 376.24C230.395 373.553 225.893 370.186 221.93 366.24C220.45 364.82 218.93 363.38 216.93 361.8L214.82 361.93C216.993 363.564 219.057 365.338 221 367.24Z" fill="white"/>
<path opacity="0.15" d="M222.92 363.94C226.964 367.965 231.556 371.399 236.56 374.14C239.652 375.947 242.886 377.499 246.23 378.78C246.35 378.34 246.51 377.9 246.67 377.47C243.414 376.214 240.264 374.699 237.25 372.94C232.454 370.315 228.049 367.033 224.16 363.19C223.179 362.817 222.177 362.499 221.16 362.24C221.75 362.81 222.34 363.38 222.92 363.94Z" fill="white"/>
<path d="M256.35 593.7C250.71 591.79 249.56 585.92 249.56 585.92H241.87V599.4H245.25V597.08C245.244 596.802 245.336 596.531 245.51 596.313C245.683 596.096 245.928 595.946 246.2 595.89C246.364 595.862 246.533 595.871 246.694 595.915C246.855 595.959 247.004 596.038 247.131 596.145C247.259 596.253 247.361 596.386 247.432 596.537C247.503 596.689 247.539 596.853 247.54 597.02C247.539 597.333 247.599 597.643 247.718 597.932C247.838 598.222 248.013 598.485 248.234 598.706C248.455 598.927 248.718 599.102 249.008 599.221C249.297 599.341 249.607 599.401 249.92 599.4H261.31C261.31 599.4 261.99 595.61 256.35 593.7Z" fill="#113355"/>
<path d="M178.89 592.41C174.16 588.8 174.95 582.87 174.95 582.87L167.67 580.41L163.35 593.18L166.55 594.26L167.29 592.06C167.376 591.795 167.552 591.568 167.788 591.418C168.023 591.268 168.303 591.205 168.58 591.24C168.745 591.266 168.902 591.328 169.04 591.421C169.179 591.514 169.295 591.637 169.381 591.78C169.466 591.923 169.52 592.083 169.537 592.249C169.554 592.415 169.535 592.582 169.48 592.74C169.283 593.337 169.331 593.987 169.612 594.549C169.893 595.111 170.385 595.539 170.98 595.74L181.77 599.39C181.77 599.39 183.62 596 178.89 592.41Z" fill="#113355"/>
<path d="M147.42 594.22H109.87C109.511 594.22 109.22 594.511 109.22 594.87V598.75C109.22 599.109 109.511 599.4 109.87 599.4H147.42C147.779 599.4 148.07 599.109 148.07 598.75V594.87C148.07 594.511 147.779 594.22 147.42 594.22Z" fill="#FF5000"/>
<path d="M153.24 589.04H115.69C115.331 589.04 115.04 589.331 115.04 589.69V593.57C115.04 593.929 115.331 594.22 115.69 594.22H153.24C153.599 594.22 153.89 593.929 153.89 593.57V589.69C153.89 589.331 153.599 589.04 153.24 589.04Z" fill="#662D91"/>
<path d="M148.71 583.86H111.16C110.801 583.86 110.51 584.151 110.51 584.51V588.39C110.51 588.749 110.801 589.04 111.16 589.04H148.71C149.069 589.04 149.36 588.749 149.36 588.39V584.51C149.36 584.151 149.069 583.86 148.71 583.86Z" fill="#9E1F63"/>
<path d="M153.89 578.68H116.34C115.981 578.68 115.69 578.971 115.69 579.33V583.21C115.69 583.569 115.981 583.86 116.34 583.86H153.89C154.249 583.86 154.54 583.569 154.54 583.21V579.33C154.54 578.971 154.249 578.68 153.89 578.68Z" fill="#FF5000"/>
<path d="M113.11 578.68H150.66C151.019 578.68 151.31 578.389 151.31 578.03V574.15C151.31 573.791 151.019 573.5 150.66 573.5H113.11C112.751 573.5 112.46 573.791 112.46 574.15V578.03C112.46 578.389 112.751 578.68 113.11 578.68Z" fill="#662D91"/>
<path opacity="0.2" d="M113.1 578.68H118.73C118.559 578.677 118.397 578.608 118.277 578.486C118.157 578.365 118.09 578.201 118.09 578.03V574.15C118.09 573.979 118.157 573.816 118.277 573.694C118.397 573.572 118.559 573.503 118.73 573.5H113.1C112.928 573.5 112.762 573.568 112.64 573.69C112.519 573.812 112.45 573.978 112.45 574.15V578C112.446 578.088 112.46 578.176 112.491 578.258C112.521 578.34 112.569 578.416 112.629 578.479C112.69 578.543 112.763 578.593 112.844 578.628C112.925 578.662 113.012 578.68 113.1 578.68V578.68Z" fill="#113355"/>
<path opacity="0.2" d="M116.24 583.86H128.35C128.178 583.86 128.012 583.791 127.89 583.67C127.768 583.548 127.7 583.382 127.7 583.21V579.33C127.7 579.158 127.768 578.992 127.89 578.87C128.012 578.748 128.178 578.68 128.35 578.68H116.24C116.068 578.68 115.902 578.748 115.78 578.87C115.658 578.992 115.59 579.158 115.59 579.33V583.21C115.59 583.382 115.658 583.548 115.78 583.67C115.902 583.791 116.068 583.86 116.24 583.86V583.86Z" fill="#113355"/>
<path opacity="0.2" d="M111.16 589H129.74C129.568 589 129.402 588.932 129.28 588.81C129.158 588.688 129.09 588.522 129.09 588.35V584.47C129.09 584.298 129.158 584.132 129.28 584.01C129.402 583.889 129.568 583.82 129.74 583.82H111.16C110.988 583.82 110.822 583.889 110.7 584.01C110.578 584.132 110.51 584.298 110.51 584.47V588.35C110.51 588.522 110.578 588.688 110.7 588.81C110.822 588.932 110.988 589 111.16 589V589Z" fill="#113355"/>
<path opacity="0.2" d="M115.69 594.22H127.8C127.628 594.22 127.462 594.152 127.34 594.03C127.219 593.908 127.15 593.742 127.15 593.57V589.69C127.15 589.518 127.219 589.352 127.34 589.23C127.462 589.109 127.628 589.04 127.8 589.04H115.69C115.605 589.04 115.52 589.057 115.441 589.09C115.362 589.122 115.291 589.17 115.23 589.23C115.17 589.291 115.122 589.362 115.09 589.441C115.057 589.52 115.04 589.605 115.04 589.69V593.57C115.04 593.655 115.057 593.74 115.09 593.819C115.122 593.898 115.17 593.969 115.23 594.03C115.291 594.09 115.362 594.138 115.441 594.171C115.52 594.203 115.605 594.22 115.69 594.22Z" fill="#113355"/>
<path opacity="0.2" d="M109.86 599.4H115.5C115.328 599.4 115.162 599.331 115.04 599.21C114.918 599.088 114.85 598.922 114.85 598.75V594.87C114.85 594.698 114.918 594.532 115.04 594.41C115.162 594.289 115.328 594.22 115.5 594.22H109.86C109.689 594.223 109.527 594.292 109.407 594.414C109.287 594.535 109.22 594.699 109.22 594.87V598.75C109.22 598.921 109.287 599.085 109.407 599.206C109.527 599.328 109.689 599.397 109.86 599.4V599.4Z" fill="#113355"/>
<path d="M131.88 573.5C142.611 573.5 151.31 564.801 151.31 554.07C151.31 543.339 142.611 534.64 131.88 534.64C121.149 534.64 112.45 543.339 112.45 554.07C112.45 564.801 121.149 573.5 131.88 573.5Z" fill="#FF5000"/>
<path d="M131.88 571.42C128.448 571.422 125.093 570.406 122.238 568.501C119.384 566.596 117.158 563.887 115.844 560.716C114.529 557.546 114.184 554.058 114.852 550.691C115.521 547.325 117.172 544.233 119.598 541.805C122.024 539.378 125.116 537.724 128.482 537.054C131.847 536.384 135.336 536.727 138.507 538.04C141.678 539.353 144.388 541.576 146.295 544.43C148.202 547.283 149.22 550.638 149.22 554.07C149.215 558.668 147.386 563.077 144.136 566.329C140.886 569.581 136.478 571.412 131.88 571.42ZM131.88 537.73C128.645 537.728 125.483 538.685 122.793 540.481C120.102 542.277 118.005 544.83 116.767 547.818C115.528 550.806 115.203 554.095 115.834 557.267C116.464 560.44 118.022 563.354 120.309 565.641C122.596 567.928 125.51 569.486 128.683 570.116C131.855 570.747 135.144 570.422 138.132 569.183C141.12 567.945 143.673 565.848 145.469 563.157C147.265 560.467 148.222 557.305 148.22 554.07C148.212 549.739 146.488 545.587 143.425 542.525C140.363 539.462 136.211 537.738 131.88 537.73Z" fill="#FF1900"/>
<path d="M131.93 544.36L122.09 561.2H141.67L131.93 544.36ZM127.93 557.89L131.93 551.17L135.93 557.85L127.93 557.89Z" fill="white"/>
<path d="M287.6 610.41C287.6 610.41 284.39 609.64 284.26 609.27C277.39 590.75 288.66 585 292.47 577.38C296.28 569.76 295.7 558 295.7 558H311.89C311.89 558 324.84 572.24 314.48 588.43C304.12 604.62 304.77 610.43 304.77 610.43L287.6 610.41Z" fill="#8899AA"/>
<path opacity="0.3" d="M303.72 606.12C303.92 607.42 304.21 608.89 304.56 610.41H304.77C304.77 610.41 304.2 605.23 312.77 591.11C305.01 596.13 302.89 600.7 303.72 606.12Z" fill="#113355"/>
<path opacity="0.3" d="M299.09 562.92L295.74 560.53C295.74 564.4 295.22 571.87 292.47 577.38C288.66 584.99 277.47 590.73 284.22 609.17C284.37 609.57 288.93 610.41 288.93 610.41H290.04C284.42 593.66 298.47 586.37 299.09 562.92Z" fill="#113355"/>
<path d="M296.35 593.57L308.71 604.17C309.1 604.501 309.413 604.914 309.627 605.378C309.841 605.843 309.951 606.348 309.95 606.86C309.95 607.802 309.576 608.705 308.91 609.37C308.244 610.036 307.342 610.41 306.4 610.41H296.35V593.57Z" fill="#8899AA"/>
<path d="M318.5 574.38C318.5 590.98 316.42 601.99 317.72 605.23C319.02 608.47 322.25 606.52 322.25 610.41H314.48L309.3 578.68L318.5 574.38Z" fill="#8899AA"/>
<path d="M282.42 608.86C265.58 596.67 283.82 587.2 277.6 574.15C277.974 573.486 278.537 572.946 279.216 572.599C279.895 572.252 280.662 572.114 281.42 572.2C289.19 580.62 272.35 596.81 284.66 603.93C287.66 605.19 293.19 603.93 293.19 603.93L293.29 610.41H287.21C285.491 610.402 283.817 609.861 282.42 608.86Z" fill="#8899AA"/>
<path d="M314.1 542.15C312.991 540.808 311.588 539.739 310 539.026C308.411 538.313 306.68 537.976 304.94 538.04C299.22 538.04 289.78 547.75 288.1 549.53C288.018 549.616 287.961 549.723 287.936 549.84C287.911 549.957 287.92 550.078 287.96 550.19C288.29 551.08 289.31 553.19 291.53 553.3C290.288 555.011 289.188 556.82 288.24 558.71C288.198 558.799 288.176 558.896 288.176 558.995C288.176 559.093 288.198 559.191 288.24 559.28C288.602 559.979 289.129 560.578 289.776 561.026C290.422 561.474 291.169 561.757 291.95 561.85C291.32 563.54 291.87 566.66 292.15 567.99C292.166 568.075 292.2 568.155 292.249 568.227C292.298 568.298 292.36 568.358 292.434 568.404C292.507 568.45 292.589 568.481 292.674 568.494C292.759 568.507 292.847 568.502 292.93 568.48C293.93 568.25 295.67 567.73 296.32 566.9C296.557 568.568 297.388 570.095 298.66 571.2C298.756 571.273 298.871 571.318 298.991 571.328C299.112 571.339 299.233 571.315 299.34 571.26C300.762 570.593 302.003 569.595 302.96 568.35C304.24 569.731 305.74 570.89 307.4 571.78C307.502 571.844 307.62 571.878 307.74 571.878C307.86 571.878 307.978 571.844 308.08 571.78C309.554 570.822 310.74 569.481 311.51 567.9C313.347 567.937 315.179 567.708 316.95 567.22C317.046 567.196 317.135 567.15 317.211 567.086C317.286 567.022 317.345 566.941 317.384 566.85C317.423 566.758 317.44 566.66 317.434 566.561C317.428 566.462 317.399 566.366 317.35 566.28C316.81 565.28 315.52 564.28 315.35 562.55C316.24 562.176 317.051 561.636 317.74 560.96C317.821 560.893 317.885 560.807 317.925 560.709C317.965 560.611 317.98 560.505 317.969 560.4C317.958 560.296 317.922 560.195 317.862 560.108C317.803 560.02 317.723 559.949 317.63 559.9C315.12 558.5 308.42 553.5 314.1 542.15Z" fill="#FF5000"/>
<path d="M309.8 544.43L310.27 534.88C310.28 534.759 310.256 534.638 310.201 534.53C310.145 534.422 310.061 534.331 309.957 534.269C309.853 534.206 309.733 534.174 309.612 534.176C309.49 534.178 309.372 534.214 309.27 534.28C307.57 535.28 304.27 537.51 303.6 541.16C302.68 546.13 309.8 544.43 309.8 544.43Z" fill="#8899AA"/>
<path d="M278.31 576C279.145 575.939 279.953 575.683 280.671 575.252C281.388 574.821 281.994 574.228 282.44 573.52C281.83 570.27 280.04 569.26 280.51 566.17C280.529 566.054 280.516 565.936 280.472 565.827C280.428 565.718 280.355 565.624 280.262 565.554C280.168 565.483 280.056 565.44 279.94 565.429C279.823 565.418 279.706 565.439 279.6 565.49C278.638 566.014 277.744 566.655 276.94 567.4C276.268 566.025 275.136 564.928 273.74 564.3C273.585 564.227 273.407 564.217 273.244 564.273C273.082 564.329 272.947 564.447 272.87 564.6C272.515 565.526 272.398 566.527 272.53 567.51C272.53 567.51 270.72 566.88 269.3 566.51C269.2 566.483 269.094 566.48 268.993 566.502C268.891 566.523 268.796 566.569 268.715 566.634C268.634 566.699 268.569 566.783 268.527 566.878C268.484 566.973 268.465 567.076 268.47 567.18C268.62 569.85 271.33 572.18 271.33 572.18C270.783 572.632 270.328 573.186 269.99 573.81C269.939 573.912 269.916 574.026 269.922 574.14C269.929 574.254 269.966 574.364 270.029 574.459C270.091 574.554 270.178 574.631 270.28 574.682C270.382 574.734 270.496 574.757 270.61 574.75C272.63 574.55 274.79 573.12 278.31 576Z" fill="#FF5000"/>
<path d="M225.81 363.7C213.09 350.42 216.68 342.55 217.54 336.7C218.4 330.85 204.36 328.49 191.36 337.04C178.36 345.59 178.19 356.75 184.36 363.67C190.53 370.59 190.7 376.22 181.28 383.92C171.86 391.62 141.28 407.24 130.7 417.85C126.7 421.85 118.18 433.5 122.07 440.68C125.96 447.86 140.55 447.12 146.2 446.92C153.27 446.66 153.48 450.87 143.77 456.37C135.4 461.12 119.35 465.88 111.77 477.51C104.19 489.14 110.4 508.51 124.77 509.85C139.14 511.19 163.1 496.68 173.02 478.54C182.94 460.4 192.53 459.03 206.56 456.13C220.59 453.23 228.12 449.37 228.37 438.84C228.62 428.31 209.6 416.77 212.72 399.66C215.84 382.55 225.92 380.87 225.81 363.7Z" fill="#FF5000"/>
<path d="M243.09 280.26C243.808 280.26 244.39 279.678 244.39 278.96C244.39 278.242 243.808 277.66 243.09 277.66C242.372 277.66 241.79 278.242 241.79 278.96C241.79 279.678 242.372 280.26 243.09 280.26Z" fill="#FF5000"/>
<path d="M248.19 280.26C248.908 280.26 249.49 279.678 249.49 278.96C249.49 278.242 248.908 277.66 248.19 277.66C247.472 277.66 246.89 278.242 246.89 278.96C246.89 279.678 247.472 280.26 248.19 280.26Z" fill="#9E1F63"/>
<path d="M253.3 280.26C254.018 280.26 254.6 279.678 254.6 278.96C254.6 278.242 254.018 277.66 253.3 277.66C252.582 277.66 252 278.242 252 278.96C252 279.678 252.582 280.26 253.3 280.26Z" fill="#662D91"/>
<path opacity="0.1" d="M372.42 284.14H237.77V287.82C279.05 285.39 313.94 286.47 336.61 286.82C347.36 287 360.98 286.89 372.45 286.72L372.42 284.14Z" fill="#113355"/>
<path d="M201.68 332.43C198.011 333.407 194.526 334.974 191.36 337.07C178.36 345.63 178.19 356.78 184.36 363.7C190.53 370.62 190.7 376.25 181.28 383.95C176.66 387.74 166.94 393.43 156.98 399.5C180.37 393.88 189.48 385.23 197.06 372.44C204.64 359.65 189.48 347.81 201.7 332.44L201.68 332.43Z" fill="#FF1900"/>
<path d="M212.67 399.84C196.28 433.5 233.03 435.55 213.58 454.44C223.11 451.63 228.19 447.49 228.4 438.87C228.66 428.35 209.63 416.8 212.75 399.69L212.67 399.84Z" fill="#FF1900"/>
<path d="M138.52 447C141.57 447.11 144.34 447 146.18 446.93C153.25 446.67 153.46 450.88 143.75 456.38C141.36 457.74 138.33 459.1 135.06 460.62C176.53 452.67 167.32 440.52 138.52 447Z" fill="#FF1900"/>
<path d="M164.96 489.62C133.04 516.43 114.11 493.79 111.4 478.21C104.52 489.9 110.7 508.54 124.8 509.88C136.09 511 153.29 502.21 164.96 489.62Z" fill="#FF1900"/>
<path opacity="0.2" d="M228.42 509.26C222.48 537.42 238.89 557.54 240.48 581.62H247.42C243.78 550.58 229.67 539.55 228.42 509.26Z" fill="#113355"/>
<path d="M450.81 215.5C451.7 216.2 452.61 216.89 453.53 217.58L466.24 214.38V214.46L475.56 205.15L446.98 212.64C448.26 213.547 449.537 214.5 450.81 215.5Z" fill="#FF5000"/>
</g>
<defs>
<clipPath id="clip0">
<rect width="720" height="624" fill="white"/>
</clipPath>
</defs>
</svg>
